<svg width="118" height="116" viewBox="0 0 118 116" fill="none" xmlns="http://www.w3.org/2000/svg">
<path fill-rule="evenodd" clip-rule="evenodd" d="M30.625 20H24.375V51.3064H30.625V20ZM68.75 51.3064H48.75L46.25 47.8627V41.6014L48.75 38.7838H68.75L71.25 41.9145V48.1758L68.75 51.3064ZM37.5 70.0903H17.5L15 66.9596V60.6983L17.5 57.5677H37.5L40 60.6983V66.9596L37.5 70.0903ZM61.875 20H55.625V32.5226H61.875V20ZM55.625 57.5677H61.875V95.1354H55.625V57.5677ZM30.625 76.3515H24.375V95.1354H30.625V76.3515ZM80 76.3515H99.9375L102.438 73.2209V67.2727L99.9375 64.142H80L77.5 67.2727V73.2209L80 76.3515ZM93.125 20H86.875V57.5677H93.125V20ZM86.875 82.6128H93.125V95.1354H86.875V82.6128Z" fill="#FAFAFA"/>
</svg>
