<svg width="118" height="116" viewBox="0 0 118 116" fill="none" xmlns="http://www.w3.org/2000/svg">
<path d="M37.1348 95.6501C34.9457 96.4692 32.568 96.6424 30.2837 96.1492C27.9993 95.656 25.9039 94.517 24.2459 92.8674C23.1033 91.7366 22.1977 90.3886 21.5824 88.9024C20.967 87.4162 20.6543 85.8218 20.6626 84.2129C20.6748 83.082 20.8431 81.9582 21.1626 80.8735C19.9584 78.6174 19.0259 76.226 18.3848 73.7496C15.832 77.277 14.6585 81.6195 15.0862 85.9553C15.514 90.2911 17.5134 94.3194 20.7061 97.2779C23.8988 100.236 28.0633 101.92 32.4115 102.01C36.7596 102.099 40.9898 100.589 44.3015 97.7651C41.8385 97.3421 39.4333 96.6323 37.1348 95.6501V95.6501ZM60.0515 84.4355C56.0381 86.6765 51.4052 87.5465 46.8542 86.9138C42.3032 86.2812 38.0818 84.1803 34.8292 80.9292C31.5801 77.6853 29.4773 73.4673 28.8405 68.9164C28.2037 64.3656 29.0679 59.7309 31.3015 55.7171C30.6931 53.1149 30.3488 50.4577 30.2737 47.7861C25.547 52.8381 22.9678 59.5342 23.0818 66.4574C23.1959 73.3806 25.9943 79.9878 30.8848 84.8807C35.7886 89.7645 42.3896 92.5563 49.3034 92.6704C56.2171 92.7846 62.9064 90.2122 67.9681 85.493C65.3007 85.4048 62.6487 85.0506 60.0515 84.4355V84.4355Z" fill="#FAFAFA"/>
<path d="M69.0787 80.3435C61.3041 80.3319 53.7739 77.6206 47.7708 72.6713C41.7676 67.7221 37.6628 60.841 36.1554 53.2001C34.648 45.5592 35.8314 37.6311 39.5039 30.7662C43.1764 23.9013 49.111 18.5241 56.2967 15.5505C63.4824 12.577 71.4749 12.191 78.9129 14.4582C86.3508 16.7255 92.7741 21.5058 97.0888 27.985C101.404 34.4641 103.343 42.2414 102.576 49.9921C101.809 57.7428 98.3843 64.9876 92.8843 70.4925C89.7567 73.6206 86.0446 76.1006 81.9599 77.7909C77.8753 79.4812 73.4981 80.3486 69.0787 80.3435V80.3435ZM69.0787 18.5377C65.3884 18.5341 61.7336 19.2591 58.3232 20.6713C54.9127 22.0835 51.8136 24.1553 49.2029 26.7681C46.5921 29.381 44.521 32.4837 43.108 35.8989C41.6949 39.3141 40.9676 42.9748 40.9676 46.6718C40.9681 50.3723 41.7054 54.0356 43.1363 57.4473C44.5672 60.859 46.663 63.9505 49.301 66.5409C54.5726 71.8207 61.7217 74.7867 69.1759 74.7867C76.6302 74.7867 83.7793 71.8207 89.051 66.5409C92.977 62.5981 95.6466 57.5767 96.7217 52.1127C97.7969 46.6488 97.2291 40.9881 95.0904 35.8476C92.9516 30.7072 89.3381 26.3183 84.7076 23.2368C80.077 20.1553 74.6378 18.5199 69.0787 18.5377V18.5377Z" fill="#FAFAFA"/>
</svg>
