<svg width="118" height="116" viewBox="0 0 118 116" fill="none" xmlns="http://www.w3.org/2000/svg">
<circle cx="59" cy="58" r="50" fill="#1F2127"/>
<path d="M44.8659 22.7264C44.455 21.7011 43.2881 21.1984 42.2846 21.66C34.516 25.2331 28.079 31.2118 23.944 38.7366C19.4873 46.847 17.9807 56.2517 19.6808 65.3484C21.3809 74.4452 26.1826 82.671 33.2676 88.6243C40.3527 94.5776 49.2829 97.8901 58.5365 97.9973C67.79 98.1046 76.7945 94.9999 84.0157 89.2124C91.2369 83.4249 96.2279 75.3126 98.1383 66.2577C100.049 57.2029 98.7605 47.7657 94.493 39.5542C90.5336 31.9356 84.2369 25.8094 76.5531 22.0571C75.5605 21.5724 74.3823 22.0479 73.9478 23.0635L73.513 24.0799C73.0785 25.0954 73.5527 26.2657 74.5416 26.7577C81.1408 30.0403 86.5481 35.3382 89.9627 41.9086C93.6856 49.072 94.8094 57.3046 93.1428 65.2037C91.4762 73.1028 87.1222 80.1797 80.8227 85.2285C74.5233 90.2773 66.6681 92.9857 58.5956 92.8921C50.5231 92.7986 42.7328 89.9089 36.5521 84.7154C30.3713 79.522 26.1825 72.3461 24.6994 64.4105C23.2163 56.4749 24.5307 48.2705 28.4185 41.1953C31.9845 34.7059 37.5132 29.5346 44.1866 26.4059C45.1867 25.937 45.6879 24.7779 45.2771 23.7526L44.8659 22.7264Z" fill="#D9D9D9"/>
<rect x="57" y="19" width="5" height="50" rx="2" fill="#D9D9D9"/>
</svg>
