<svg width="118" height="116" viewBox="0 0 118 116" fill="none" xmlns="http://www.w3.org/2000/svg">
<path d="M58.5127 42.4368C58.5127 44.9277 57.525 47.3166 55.7668 49.0779C54.0087 50.8393 51.6241 51.8288 49.1377 51.8288C46.6513 51.8288 44.2667 50.8393 42.5086 49.0779C40.7504 47.3166 39.7627 44.9277 39.7627 42.4368C39.7627 39.946 40.7504 37.5571 42.5086 35.7958C44.2667 34.0344 46.6513 33.0449 49.1377 33.0449C51.6241 33.0449 54.0087 34.0344 55.7668 35.7958C57.525 37.5571 58.5127 39.946 58.5127 42.4368V42.4368Z" fill="#1F2127"/>
<path d="M83.5 8H33.5C30.1848 8 27.0054 9.31934 24.6612 11.6678C22.317 14.0162 21 17.2014 21 20.5226V95.6579C21 98.9791 22.317 102.164 24.6612 104.513C27.0054 106.861 30.1848 108.181 33.5 108.181H83.5C86.8152 108.181 89.9946 106.861 92.3388 104.513C94.683 102.164 96 98.9791 96 95.6579V20.5226C96 17.2014 94.683 14.0162 92.3388 11.6678C89.9946 9.31934 86.8152 8 83.5 8V8ZM27.25 20.5226C27.25 18.862 27.9085 17.2694 29.0806 16.0952C30.2527 14.921 31.8424 14.2613 33.5 14.2613H83.5C85.1576 14.2613 86.7473 14.921 87.9194 16.0952C89.0915 17.2694 89.75 18.862 89.75 20.5226V70.6128L76.7312 57.5706C76.4103 57.2496 76.0235 57.0024 75.5976 56.8462C75.1718 56.69 74.717 56.6285 74.2651 56.666C73.8131 56.7036 73.3747 56.8392 72.9803 57.0635C72.586 57.2878 72.245 57.5955 71.9812 57.965L58.5 76.8741L44.9688 68.7344C44.3705 68.3755 43.6696 68.2274 42.9776 68.3137C42.2856 68.3999 41.6423 68.7155 41.15 69.2103L27.25 83.1354V20.5226Z" fill="#FAFAFA"/>
</svg>
