<svg width="118" height="116" viewBox="0 0 118 116" fill="none" xmlns="http://www.w3.org/2000/svg">
<g clip-path="url(#clip0_666_11)">
<path d="M94.12 23.04C93.8 26.72 93.56 30.32 93.4 33.84C93.32 37.28 93.28 39.92 93.28 41.76C93.28 43.6 93.32 45.32 93.4 46.92C93.48 48.52 93.56 49.92 93.64 51.12H90.88C89.76 44.72 88.4 39.72 86.8 36.12C85.2 32.44 83.08 29.8 80.44 28.2C77.88 26.6 74.48 25.8 70.24 25.8H66.4V94.2C66.4 97.48 66.68 99.92 67.24 101.52C67.88 103.12 69.12 104.2 70.96 104.76C72.8 105.24 75.48 105.52 79 105.6V108C76.6 107.84 73.48 107.76 69.64 107.76C65.8 107.68 61.88 107.64 57.88 107.64C53.72 107.64 49.8 107.68 46.12 107.76C42.52 107.76 39.6 107.84 37.36 108V105.6C40.8 105.52 43.44 105.24 45.28 104.76C47.12 104.2 48.36 103.12 49 101.52C49.64 99.92 49.96 97.48 49.96 94.2V25.8H46C41.84 25.8 38.44 26.6 35.8 28.2C33.16 29.8 31.04 32.44 29.44 36.12C27.84 39.72 26.52 44.72 25.48 51.12H22.72C22.88 49.92 22.96 48.52 22.96 46.92C23.04 45.32 23.08 43.6 23.08 41.76C23.08 39.92 23 37.28 22.84 33.84C22.76 30.32 22.56 26.72 22.24 23.04C25.76 23.12 29.64 23.2 33.88 23.28C38.12 23.36 42.36 23.4 46.6 23.4C50.84 23.4 54.72 23.4 58.24 23.4C61.68 23.4 65.52 23.4 69.76 23.4C74 23.4 78.24 23.36 82.48 23.28C86.72 23.2 90.6 23.12 94.12 23.04Z" fill="#1F2127"/>
</g>
<defs>
<clipPath id="clip0_666_11">
<rect width="118" height="116" fill="white"/>
</clipPath>
</defs>
</svg>
