<svg width="65" height="79" viewBox="0 0 65 79" fill="none" xmlns="http://www.w3.org/2000/svg">
<path d="M27.7703 0.397358C27.4005 0.767213 27.3851 0.859677 27.4621 1.89219C27.5238 2.50862 27.6008 3.57195 27.6625 4.28084C27.7395 5.19007 27.8474 5.6678 28.0631 5.92978C28.4638 6.45374 29.2344 6.45374 29.7275 5.92978L30.0819 5.55993L29.8816 3.2021C29.6813 0.736392 29.6042 0.412768 29.1111 0.150787C28.6333 -0.111194 28.2018 -0.0341406 27.7703 0.397358Z" fill="white"/>
<path d="M43.0578 0.135567C42.3027 0.335905 41.3935 0.859866 40.8695 1.41465C40.2069 2.10813 33.1334 11.4932 32.933 11.9401C32.5632 12.7569 33.3799 13.6969 34.2737 13.4658C34.5511 13.4041 35.7378 11.9247 38.6041 8.14911C40.777 5.26731 42.7188 2.80161 42.9191 2.66291C44.0287 1.93861 45.7547 2.41635 46.4636 3.63379C46.8026 4.20398 46.8643 4.46596 46.8026 5.12862C46.741 5.91456 46.6023 6.1149 40.4688 14.3288C36.4929 19.6609 34.1967 22.8509 34.1967 23.082C34.1967 23.6214 34.4433 23.9758 34.9518 24.1762C35.6453 24.469 36.0152 24.1762 37.6487 22.0033C39.1897 19.9537 39.498 19.6609 40.3147 19.4913C42.0099 19.1369 43.7975 20.9862 43.3506 22.6197C43.2582 22.9587 42.1486 24.5923 40.7 26.534C38.0339 30.1247 37.8644 30.4791 38.5271 31.1418C38.7428 31.3576 38.9894 31.4346 39.4055 31.4038C39.9449 31.3575 40.0682 31.2343 41.9174 28.7377C42.9962 27.2891 44.1057 25.9484 44.3831 25.7635C45.092 25.2703 46.5098 25.332 47.2803 25.8714C48.2512 26.5648 48.6519 28.1213 48.0971 29.046C47.943 29.3079 46.7564 30.9261 45.4773 32.6366C44.0595 34.5321 43.1349 35.9191 43.1349 36.1349C43.1349 36.7205 43.7051 37.2907 44.2907 37.2907C44.8917 37.2907 44.8455 37.3369 47.4807 33.8387C48.4361 32.5596 49.407 31.3884 49.6382 31.2189C50.2392 30.7874 51.3488 30.8028 52.1501 31.2651C53.0593 31.7736 53.5217 32.5288 53.5217 33.4996C53.5217 34.4397 54.0456 33.6691 48.5132 41.0663C43.1811 48.2168 42.2565 49.126 38.7737 50.775C36.7703 51.715 35.1367 52.1157 32.7635 52.2082C30.5598 52.2852 29.0804 52.1003 27.1848 51.5147C22.3767 50.0044 18.4008 46.1672 16.8135 41.5132C16.6285 40.9892 15.3341 36.2427 13.9317 30.9569C11.9591 23.5443 11.3889 21.2173 11.466 20.8013C11.7742 19.1215 13.3923 17.488 14.3632 17.8578C14.6098 17.9503 15.9042 19.5838 17.9385 22.3423C19.8186 24.9005 21.3442 26.8114 21.6216 26.9809C22.2534 27.3662 23.4863 27.3662 24.1181 26.9809C24.5496 26.7189 30.5752 18.952 31.5307 17.4263C31.9621 16.7328 31.9776 16.4863 31.5615 15.9623C31.3303 15.6695 31.0992 15.5616 30.7293 15.5616C30.082 15.5616 29.9125 15.762 25.8749 21.1557C24.3031 23.2515 22.9623 24.9621 22.8699 24.9621C22.7928 24.9621 21.4675 23.2515 19.9418 21.1711C18.4162 19.0907 16.9368 17.1027 16.644 16.7791C14.7947 14.5908 11.728 15.3151 9.95574 18.351C9.44718 19.214 9.01569 20.8475 9.12356 21.5564C9.20061 22.2036 14.0241 40.419 14.5019 41.9138C14.9334 43.27 15.9967 45.4121 16.8597 46.6295C17.245 47.1843 17.5532 47.662 17.5532 47.6928C17.5532 47.7237 14.5481 47.7699 10.8958 47.8007C4.79317 47.8469 4.17674 47.8778 3.60655 48.1398C2.57403 48.6175 1.58775 49.4188 1.01756 50.2664C-0.0457799 51.8383 -0.0303693 51.5609 0.0158627 63.6583L0.0620947 74.5074L0.539825 75.5091C1.14084 76.7882 2.0963 77.7436 3.37539 78.3446L4.37708 78.8224L27.4314 78.8686L50.4858 78.8994L50.8864 78.5758C51.4566 78.1443 51.4566 77.3429 50.9018 76.9114L50.4858 76.5878H27.8937C11.8512 76.5878 5.11679 76.5416 4.68529 76.4183C3.86853 76.1871 2.69732 75.0159 2.46616 74.1992C2.35828 73.7831 2.29664 70.3157 2.29664 63.2114C2.29664 51.7767 2.26582 52.239 3.26751 51.1756C4.33085 50.0661 4.13051 50.0815 12.4214 50.0815H19.8494L21.1285 51.0061C24.3493 53.3486 28.0478 54.5506 32.0392 54.5506C36.1076 54.5506 39.8216 53.3331 43.0116 50.9753L44.2136 50.0815H52.1193C60.9188 50.0815 60.6722 50.0661 61.7355 51.1756C62.7372 52.239 62.7064 51.7767 62.7064 63.2114C62.7064 70.3157 62.6448 73.7831 62.5369 74.1992C62.3057 75.0159 61.1345 76.1871 60.3178 76.4183C59.9787 76.5108 58.715 76.5878 57.4976 76.5878C56.2802 76.5878 55.1706 76.6495 55.0165 76.7419C54.8624 76.819 54.6466 77.081 54.5542 77.3429C54.4001 77.7128 54.4001 77.8669 54.6004 78.2676C54.7391 78.5296 55.0165 78.7761 55.2322 78.8378C55.448 78.884 56.7425 78.8994 58.114 78.8686C60.5489 78.8224 60.6568 78.807 61.6277 78.3446C62.9067 77.7436 63.8622 76.7882 64.4632 75.5091L64.9409 74.5074L64.9872 63.612C65.018 52.8708 65.018 52.7013 64.6944 51.7458C64.1396 50.1123 63.0454 48.9103 61.3965 48.1398C60.8263 47.8778 60.2253 47.8469 53.6604 47.8007C49.7306 47.7699 46.5252 47.7237 46.5252 47.6774C46.5252 47.6466 48.4824 44.996 50.871 41.7906C53.2597 38.6006 55.3401 35.6725 55.525 35.2873C55.9411 34.3318 55.9411 32.6983 55.4942 31.712C54.6775 29.8627 53.4754 28.9689 51.2717 28.5836C50.7169 28.4912 50.6861 28.4603 50.6861 27.9056C50.6861 25.6864 48.7135 23.4211 46.556 23.1591L45.7855 23.082L45.7239 21.9725C45.6314 20.678 45.2461 19.7071 44.4448 18.8287C43.8438 18.1506 42.2411 17.2568 41.64 17.2568C41.4551 17.2568 41.2856 17.226 41.2856 17.1797C41.2856 17.1489 42.9191 14.9144 44.9225 12.2329C46.9259 9.55148 48.6981 7.05495 48.8676 6.65427C49.1296 6.08408 49.1759 5.72964 49.1142 4.71253C49.0372 3.3564 48.8214 2.80161 47.9584 1.73827C46.9567 0.505422 44.5989 -0.280521 43.0578 0.135567Z" fill="white"/>
<path d="M21.1753 3.61849C20.9441 3.83424 20.79 4.17327 20.79 4.43526C20.79 4.9284 21.0828 5.2212 23.5331 7.28623C24.843 8.39579 25.2129 8.62695 25.6444 8.62695C26.0142 8.62695 26.2454 8.51908 26.4766 8.22628C27.1238 7.40951 26.9543 7.16294 24.3191 4.9284C22.1462 3.09453 21.8226 2.95583 21.1753 3.61849Z" fill="white"/>
<path d="M21.1744 10.1985C20.3268 10.2601 19.4792 10.3988 19.2789 10.4759C18.5237 10.7995 18.4467 11.9399 19.171 12.4176C19.5254 12.6488 19.7874 12.6488 21.837 12.4946C24.4414 12.2789 24.8421 12.1094 24.9192 11.2002C24.95 10.7995 24.8729 10.5529 24.6572 10.3372C24.3027 9.98271 23.8404 9.95189 21.1744 10.1985Z" fill="white"/>
<path d="M10.341 56.9083C10.002 57.2627 10.002 57.309 10.002 63.35V69.4526L10.3564 69.7762C10.6954 70.0998 10.8495 70.1152 13.5618 70.1152C16.3511 70.1152 16.4282 70.0998 16.7518 69.7608C17.1679 69.3139 17.1833 68.7283 16.7981 68.2505C16.5207 67.8961 16.3974 67.8807 14.4094 67.8345L12.3136 67.7728V66.1701V64.5674H14.0087C15.8426 64.5674 16.3511 64.4287 16.6131 63.8431C16.8597 63.2883 16.8289 63.0572 16.3974 62.6411C16.0429 62.2712 15.9351 62.2558 14.1628 62.2558H12.3136V60.5606V58.8655H14.3169C16.2587 58.8655 16.3511 58.85 16.7056 58.4802C16.9213 58.2799 17.0909 57.9254 17.0909 57.7097C17.0909 57.4939 16.9213 57.1395 16.7056 56.9391C16.3357 56.5539 16.3049 56.5539 13.5002 56.5539C10.7417 56.5539 10.6646 56.5693 10.341 56.9083Z" fill="white"/>
<path d="M24.6267 56.754C24.488 56.8619 24.3185 57.0776 24.226 57.2471C23.7945 58.0639 19.9727 68.7127 19.9727 69.0979C19.9727 69.8993 21.0822 70.4233 21.7603 69.9147C21.899 69.8222 22.2226 69.2058 22.4692 68.574L22.9007 67.4182H25.4126H27.9246L28.356 68.574C28.6026 69.2058 28.9262 69.8222 29.0649 69.9147C29.743 70.4233 30.8526 69.8993 30.8526 69.0979C30.8526 68.3891 26.6917 57.1393 26.3218 56.8157C25.952 56.5074 24.9965 56.4766 24.6267 56.754ZM26.291 62.872L27.0616 65.0295H25.4743C24.5959 65.0295 23.8716 64.9833 23.8716 64.9217C23.8716 64.7059 25.3356 60.7145 25.4126 60.7145C25.4588 60.7145 25.8595 61.6854 26.291 62.872Z" fill="white"/>
<path d="M36.7705 56.7695C34.9828 57.4322 33.9811 59.1582 34.351 60.9766C34.6592 62.456 35.1986 62.8721 38.5581 64.2591C40.1762 64.9217 40.6694 65.3532 40.6694 66.0929C40.6694 66.4012 40.5615 66.8172 40.4228 67.0022C39.606 68.1734 37.1712 68.0347 35.815 66.7248C35.0907 66.0313 34.613 65.9851 34.0274 66.5553C33.4418 67.1409 33.5034 67.6186 34.2431 68.3891C35.6609 69.8531 38.3424 70.5158 40.2533 69.8686C41.8098 69.3446 42.9964 67.7573 42.9964 66.2162C42.9964 64.2437 42.0255 63.1957 38.9434 61.9167C36.6318 60.9458 36.3082 60.6376 36.678 59.7746C37.1095 58.7112 38.666 58.5571 40.2995 59.4047C41.5015 60.0366 41.8868 60.0674 42.3337 59.5897C43.0734 58.8037 42.6111 57.9253 41.0238 57.1394C40.1608 56.7233 39.8218 56.6462 38.6814 56.6C37.8184 56.5692 37.1557 56.6308 36.7705 56.7695Z" fill="white"/>
<path d="M45.9394 56.8622C45.2921 57.4633 45.4616 57.941 47.3726 60.869L49.1448 63.5967V66.5247C49.1448 69.3757 49.1602 69.4527 49.4992 69.7764C50.0078 70.2541 50.7321 70.2233 51.1328 69.7147C51.441 69.3295 51.4564 69.0983 51.4564 66.4323V63.5659L53.2286 60.8382C54.1995 59.3434 55.0008 57.9718 55.0008 57.7869C55.0008 57.0009 54.3536 56.4616 53.5985 56.6311C53.2286 56.7235 52.905 57.0934 51.7492 58.881C50.9787 60.0522 50.316 61.0231 50.2852 61.0231C50.2544 61.0231 49.6225 60.1139 48.8982 58.9889C48.1739 57.8639 47.4496 56.8622 47.3109 56.7544C46.9411 56.4616 46.3092 56.5232 45.9394 56.8622Z" fill="white"/>
</svg>
