<svg width="455" height="254" viewBox="0 0 455 254" fill="none" xmlns="http://www.w3.org/2000/svg">
<path d="M25.3281 246L29.2812 223.25L36.375 223.266C39.0104 223.276 40.9896 223.812 42.3125 224.875C43.6354 225.938 44.2344 227.432 44.1094 229.359C43.9635 231.661 42.6354 233.344 40.125 234.406C41.0312 234.719 41.7344 235.307 42.2344 236.172C42.7344 237.026 42.9479 238.036 42.875 239.203C42.7292 241.349 41.8854 243.021 40.3438 244.219C38.8125 245.406 36.7188 246 34.0625 246H25.3281ZM31.6406 236.094L30.5625 242.234L34.1719 242.25C35.2969 242.25 36.2396 241.974 37 241.422C37.7604 240.859 38.2135 240.104 38.3594 239.156C38.5052 238.219 38.375 237.49 37.9688 236.969C37.5729 236.438 36.901 236.151 35.9531 236.109L31.6406 236.094ZM32.2031 232.781L35.3125 232.812C36.4688 232.792 37.4115 232.521 38.1406 232C38.8802 231.479 39.3229 230.755 39.4688 229.828C39.7292 227.995 38.7656 227.073 36.5781 227.062L33.2031 227.047L32.2031 232.781ZM53.0469 246.312C51.5677 246.302 50.2552 245.943 49.1094 245.234C47.974 244.516 47.125 243.536 46.5625 242.297C46 241.047 45.7812 239.672 45.9062 238.172L45.9531 237.547C46.1094 235.901 46.5885 234.391 47.3906 233.016C48.1927 231.641 49.224 230.583 50.4844 229.844C51.7448 229.094 53.1406 228.74 54.6719 228.781C56.849 228.823 58.4948 229.625 59.6094 231.188C60.7344 232.74 61.1615 234.708 60.8906 237.094L60.6406 239.016H50.2812C50.2396 240.109 50.5052 240.984 51.0781 241.641C51.651 242.297 52.4323 242.635 53.4219 242.656C55.026 242.698 56.4323 242.078 57.6406 240.797L59.6562 243.297C59.0208 244.255 58.1042 245.005 56.9062 245.547C55.7083 246.078 54.4219 246.333 53.0469 246.312ZM54.4531 232.422C53.6406 232.401 52.9167 232.656 52.2812 233.188C51.6562 233.719 51.0938 234.641 50.5938 235.953H56.6562L56.75 235.547C56.8125 235.13 56.8177 234.734 56.7656 234.359C56.6615 233.755 56.4062 233.286 56 232.953C55.5938 232.609 55.0781 232.432 54.4531 232.422ZM62.7969 237.531C63.1094 234.917 63.9583 232.797 65.3438 231.172C66.7396 229.536 68.4948 228.734 70.6094 228.766C72.4115 228.807 73.7552 229.458 74.6406 230.719L75.2188 229.078L79.2656 229.094L76.5 245.422C76.1979 247.672 75.2396 249.453 73.625 250.766C72.0104 252.078 70.0104 252.714 67.625 252.672C66.4583 252.651 65.3438 252.396 64.2812 251.906C63.2188 251.427 62.3438 250.766 61.6562 249.922L63.8438 247.234C64.8229 248.474 66.0521 249.115 67.5312 249.156C68.6771 249.198 69.6562 248.896 70.4688 248.25C71.2812 247.615 71.8333 246.714 72.125 245.547L72.375 244.531C71.1458 245.76 69.7656 246.354 68.2344 246.312C66.5885 246.292 65.2812 245.682 64.3125 244.484C63.3438 243.276 62.8125 241.708 62.7188 239.781C62.6875 239.146 62.7135 238.396 62.7969 237.531ZM67.125 239.375C67.125 240.354 67.3281 241.141 67.7344 241.734C68.151 242.318 68.75 242.625 69.5312 242.656C70.7292 242.698 71.7917 242.188 72.7188 241.125L74.0312 233.969C73.5833 232.99 72.7552 232.479 71.5469 232.438C70.4219 232.406 69.4688 232.859 68.6875 233.797C67.9062 234.734 67.4167 235.979 67.2188 237.531C67.1458 238.292 67.1146 238.906 67.125 239.375ZM84.4844 246H80.0469L82.9844 229.094H87.4219L84.4844 246ZM83.5 224.797C83.4792 224.099 83.7083 223.521 84.1875 223.062C84.6667 222.604 85.2448 222.375 85.9219 222.375C86.5885 222.354 87.1667 222.557 87.6562 222.984C88.1458 223.411 88.401 223.964 88.4219 224.641C88.4427 225.286 88.224 225.849 87.7656 226.328C87.3177 226.807 86.7292 227.057 86 227.078C85.3438 227.099 84.7656 226.901 84.2656 226.484C83.776 226.068 83.5208 225.505 83.5 224.797ZM95.2031 229.078L94.8281 231.078C96.1823 229.505 97.8229 228.74 99.75 228.781C101.344 228.812 102.521 229.396 103.281 230.531C104.042 231.667 104.318 233.24 104.109 235.25L102.328 246H97.9219L99.7344 235.203C99.7865 234.797 99.7969 234.427 99.7656 234.094C99.6302 233.031 98.9635 232.484 97.7656 232.453C96.6094 232.411 95.5729 232.948 94.6562 234.062L92.5469 246H88.1406L91.0781 229.094L95.2031 229.078ZM112.766 229.078L112.391 231.078C113.745 229.505 115.385 228.74 117.312 228.781C118.906 228.812 120.083 229.396 120.844 230.531C121.604 231.667 121.88 233.24 121.672 235.25L119.891 246H115.484L117.297 235.203C117.349 234.797 117.359 234.427 117.328 234.094C117.193 233.031 116.526 232.484 115.328 232.453C114.172 232.411 113.135 232.948 112.219 234.062L110.109 246H105.703L108.641 229.094L112.766 229.078ZM131.391 246.312C129.911 246.302 128.599 245.943 127.453 245.234C126.318 244.516 125.469 243.536 124.906 242.297C124.344 241.047 124.125 239.672 124.25 238.172L124.297 237.547C124.453 235.901 124.932 234.391 125.734 233.016C126.536 231.641 127.568 230.583 128.828 229.844C130.089 229.094 131.484 228.74 133.016 228.781C135.193 228.823 136.839 229.625 137.953 231.188C139.078 232.74 139.505 234.708 139.234 237.094L138.984 239.016H128.625C128.583 240.109 128.849 240.984 129.422 241.641C129.995 242.297 130.776 242.635 131.766 242.656C133.37 242.698 134.776 242.078 135.984 240.797L138 243.297C137.365 244.255 136.448 245.005 135.25 245.547C134.052 246.078 132.766 246.333 131.391 246.312ZM132.797 232.422C131.984 232.401 131.26 232.656 130.625 233.188C130 233.719 129.438 234.641 128.938 235.953H135L135.094 235.547C135.156 235.13 135.161 234.734 135.109 234.359C135.005 233.755 134.75 233.286 134.344 232.953C133.938 232.609 133.422 232.432 132.797 232.422ZM151.875 233.328C151.271 233.224 150.776 233.172 150.391 233.172C148.818 233.13 147.573 233.719 146.656 234.938L144.703 246H140.297L143.234 229.094L147.375 229.078L146.969 231.141C148.031 229.547 149.344 228.75 150.906 228.75C151.344 228.75 151.854 228.823 152.438 228.969L151.875 233.328Z" fill="#3F3D56"/>
<path d="M167.569 185.672L163.878 207H159.586L163.292 185.672H167.569ZM173.736 194.769L171.612 207H167.481L170.235 191.15H174.103L173.736 194.769ZM172.521 198.519L171.495 198.548C171.603 197.601 171.817 196.663 172.14 195.735C172.462 194.808 172.901 193.973 173.458 193.23C174.024 192.479 174.713 191.888 175.523 191.458C176.344 191.028 177.296 190.823 178.38 190.843C179.259 190.872 179.981 191.058 180.548 191.399C181.124 191.731 181.563 192.181 181.866 192.747C182.179 193.313 182.379 193.953 182.467 194.666C182.564 195.379 182.574 196.121 182.496 196.893L180.797 207H176.651L178.365 196.849C178.424 196.331 178.409 195.872 178.321 195.472C178.233 195.071 178.038 194.754 177.735 194.52C177.442 194.285 177.013 194.163 176.446 194.153C175.821 194.134 175.279 194.251 174.82 194.505C174.371 194.759 173.99 195.101 173.678 195.53C173.365 195.96 173.116 196.434 172.931 196.951C172.745 197.469 172.608 197.991 172.521 198.519ZM194.215 191.15L193.688 194.139H184.708L185.235 191.15H194.215ZM188.136 187.239H192.252L189.674 202.254C189.635 202.596 189.635 202.889 189.674 203.133C189.723 203.367 189.835 203.548 190.011 203.675C190.187 203.802 190.46 203.875 190.831 203.895C191.036 203.904 191.241 203.899 191.446 203.88C191.651 203.851 191.861 203.821 192.076 203.792L191.783 206.941C191.393 207.059 190.997 207.142 190.597 207.19C190.206 207.249 189.806 207.278 189.396 207.278C188.458 207.259 187.687 207.054 187.081 206.663C186.485 206.272 186.056 205.735 185.792 205.052C185.538 204.358 185.455 203.558 185.543 202.649L188.136 187.239ZM201.188 207.293C200.104 207.273 199.127 207.068 198.258 206.678C197.389 206.277 196.661 205.73 196.075 205.037C195.499 204.344 195.074 203.538 194.801 202.62C194.527 201.702 194.43 200.716 194.508 199.661L194.566 199.061C194.684 197.957 194.952 196.907 195.372 195.911C195.792 194.915 196.354 194.036 197.057 193.274C197.76 192.503 198.59 191.902 199.547 191.473C200.514 191.033 201.588 190.828 202.77 190.857C203.873 190.877 204.815 191.102 205.597 191.531C206.378 191.961 207.008 192.537 207.486 193.26C207.965 193.982 208.292 194.808 208.468 195.735C208.644 196.653 208.678 197.615 208.57 198.621L208.336 200.379H196.09L196.544 197.566L204.63 197.581L204.703 197.215C204.781 196.678 204.757 196.18 204.63 195.721C204.503 195.252 204.264 194.876 203.912 194.593C203.561 194.31 203.092 194.158 202.506 194.139C201.832 194.119 201.266 194.261 200.807 194.563C200.348 194.866 199.972 195.267 199.679 195.765C199.386 196.263 199.161 196.805 199.005 197.391C198.849 197.967 198.736 198.523 198.668 199.061L198.609 199.646C198.561 200.164 198.575 200.682 198.653 201.199C198.731 201.707 198.883 202.166 199.107 202.576C199.342 202.986 199.659 203.318 200.06 203.572C200.47 203.826 200.982 203.963 201.598 203.982C202.379 204.002 203.097 203.851 203.751 203.528C204.415 203.196 205.011 202.757 205.538 202.21L207.384 204.437C206.944 205.101 206.383 205.647 205.699 206.077C205.025 206.497 204.298 206.805 203.517 207C202.735 207.205 201.959 207.303 201.188 207.293ZM215.704 194.827L213.595 207H209.479L212.232 191.15H216.1L215.704 194.827ZM220.875 191.019L220.362 194.959C220.128 194.92 219.889 194.886 219.645 194.856C219.41 194.827 219.171 194.808 218.927 194.798C218.36 194.788 217.848 194.861 217.389 195.018C216.93 195.174 216.529 195.403 216.188 195.706C215.855 195.999 215.572 196.36 215.338 196.79C215.113 197.22 214.942 197.703 214.825 198.24L214.02 197.977C214.117 197.225 214.278 196.434 214.503 195.604C214.737 194.764 215.06 193.982 215.47 193.26C215.89 192.527 216.422 191.937 217.066 191.487C217.721 191.028 218.517 190.804 219.454 190.813C219.698 190.813 219.933 190.833 220.157 190.872C220.392 190.911 220.631 190.96 220.875 191.019ZM226.383 194.666L224.259 207H220.128L222.882 191.15H226.734L226.383 194.666ZM225.196 198.519L224.098 198.533C224.215 197.576 224.43 196.634 224.742 195.706C225.064 194.778 225.504 193.943 226.061 193.201C226.627 192.459 227.32 191.873 228.141 191.443C228.961 191.014 229.918 190.813 231.012 190.843C231.822 190.862 232.496 191.028 233.033 191.341C233.57 191.653 233.995 192.068 234.308 192.586C234.62 193.104 234.825 193.694 234.923 194.358C235.03 195.022 235.05 195.711 234.981 196.424L233.224 207H229.107L230.792 196.878C230.851 196.39 230.846 195.94 230.777 195.53C230.709 195.12 230.538 194.793 230.265 194.549C229.991 194.295 229.576 194.158 229.02 194.139C228.414 194.119 227.887 194.241 227.438 194.505C226.988 194.759 226.612 195.101 226.31 195.53C226.017 195.96 225.777 196.438 225.592 196.966C225.406 197.483 225.274 198.001 225.196 198.519ZM234.439 198.035L232.96 198.24C233.067 197.303 233.282 196.395 233.604 195.516C233.927 194.627 234.366 193.826 234.923 193.113C235.479 192.4 236.158 191.839 236.959 191.429C237.76 191.019 238.688 190.823 239.742 190.843C240.611 190.872 241.334 191.053 241.91 191.385C242.486 191.717 242.931 192.166 243.243 192.732C243.565 193.299 243.775 193.938 243.873 194.651C243.971 195.354 243.98 196.097 243.902 196.878L242.203 207H238.072L239.771 196.863C239.83 196.375 239.825 195.931 239.757 195.53C239.688 195.12 239.518 194.793 239.244 194.549C238.98 194.295 238.57 194.163 238.014 194.153C237.457 194.134 236.969 194.236 236.549 194.461C236.139 194.676 235.792 194.974 235.509 195.354C235.226 195.726 234.996 196.146 234.82 196.614C234.645 197.083 234.518 197.557 234.439 198.035ZM252.809 207.293C251.725 207.273 250.748 207.068 249.879 206.678C249.01 206.277 248.282 205.73 247.696 205.037C247.12 204.344 246.695 203.538 246.422 202.62C246.148 201.702 246.051 200.716 246.129 199.661L246.188 199.061C246.305 197.957 246.573 196.907 246.993 195.911C247.413 194.915 247.975 194.036 248.678 193.274C249.381 192.503 250.211 191.902 251.168 191.473C252.135 191.033 253.209 190.828 254.391 190.857C255.494 190.877 256.437 191.102 257.218 191.531C257.999 191.961 258.629 192.537 259.107 193.26C259.586 193.982 259.913 194.808 260.089 195.735C260.265 196.653 260.299 197.615 260.191 198.621L259.957 200.379H247.711L248.165 197.566L256.251 197.581L256.324 197.215C256.402 196.678 256.378 196.18 256.251 195.721C256.124 195.252 255.885 194.876 255.533 194.593C255.182 194.31 254.713 194.158 254.127 194.139C253.453 194.119 252.887 194.261 252.428 194.563C251.969 194.866 251.593 195.267 251.3 195.765C251.007 196.263 250.782 196.805 250.626 197.391C250.47 197.967 250.357 198.523 250.289 199.061L250.23 199.646C250.182 200.164 250.196 200.682 250.274 201.199C250.353 201.707 250.504 202.166 250.729 202.576C250.963 202.986 251.28 203.318 251.681 203.572C252.091 203.826 252.604 203.963 253.219 203.982C254 204.002 254.718 203.851 255.372 203.528C256.036 203.196 256.632 202.757 257.159 202.21L259.005 204.437C258.565 205.101 258.004 205.647 257.32 206.077C256.646 206.497 255.919 206.805 255.138 207C254.356 207.205 253.58 207.303 252.809 207.293ZM270.826 203.309L274.078 184.5H278.224L274.327 207H270.621L270.826 203.309ZM261.803 199.383L261.832 199.061C261.959 198.094 262.184 197.117 262.506 196.131C262.838 195.145 263.287 194.246 263.854 193.436C264.43 192.625 265.138 191.98 265.978 191.502C266.817 191.023 267.813 190.804 268.966 190.843C269.952 190.882 270.768 191.16 271.412 191.678C272.057 192.186 272.555 192.845 272.906 193.655C273.268 194.456 273.512 195.311 273.639 196.219C273.775 197.117 273.829 197.972 273.8 198.782L273.727 199.485C273.57 200.354 273.307 201.253 272.936 202.181C272.574 203.099 272.101 203.953 271.515 204.744C270.938 205.525 270.25 206.155 269.449 206.634C268.658 207.112 267.755 207.337 266.739 207.308C265.675 207.278 264.801 207.02 264.117 206.531C263.443 206.033 262.921 205.394 262.55 204.612C262.179 203.831 261.939 202.981 261.832 202.063C261.725 201.146 261.715 200.252 261.803 199.383ZM265.978 199.046L265.948 199.354C265.909 199.773 265.885 200.247 265.875 200.774C265.875 201.292 265.929 201.795 266.036 202.283C266.153 202.762 266.363 203.162 266.666 203.484C266.979 203.797 267.428 203.968 268.014 203.997C268.756 204.026 269.396 203.855 269.933 203.484C270.47 203.104 270.899 202.615 271.222 202.02C271.554 201.424 271.773 200.799 271.881 200.145L272.159 198.196C272.208 197.747 272.208 197.293 272.159 196.834C272.11 196.375 271.998 195.945 271.822 195.545C271.656 195.145 271.402 194.817 271.061 194.563C270.729 194.31 270.294 194.178 269.757 194.168C269.103 194.139 268.546 194.28 268.087 194.593C267.638 194.896 267.271 195.296 266.988 195.794C266.705 196.282 266.48 196.814 266.314 197.391C266.158 197.967 266.046 198.519 265.978 199.046ZM284.566 191.15L281.827 207H277.696L280.45 191.15H284.566ZM280.904 187.093C280.885 186.429 281.1 185.896 281.549 185.496C282.008 185.096 282.56 184.891 283.204 184.881C283.819 184.871 284.356 185.057 284.815 185.438C285.274 185.809 285.504 186.312 285.504 186.946C285.523 187.61 285.304 188.143 284.845 188.543C284.386 188.943 283.839 189.148 283.204 189.158C282.589 189.168 282.052 188.987 281.593 188.616C281.144 188.245 280.914 187.737 280.904 187.093ZM294.146 203.426L295.26 196.321C295.309 195.892 295.289 195.491 295.201 195.12C295.113 194.749 294.933 194.456 294.659 194.241C294.396 194.017 294.02 193.895 293.531 193.875C293.092 193.865 292.696 193.943 292.345 194.109C292.003 194.266 291.72 194.495 291.495 194.798C291.271 195.091 291.114 195.442 291.026 195.853L286.896 195.882C286.944 195.003 287.188 194.246 287.628 193.611C288.077 192.967 288.644 192.439 289.327 192.029C290.011 191.619 290.753 191.316 291.554 191.121C292.364 190.926 293.155 190.838 293.927 190.857C295.03 190.877 296.012 191.106 296.871 191.546C297.74 191.985 298.404 192.615 298.863 193.436C299.332 194.246 299.508 195.232 299.391 196.395L298.292 203.191C298.204 203.758 298.136 204.354 298.087 204.979C298.038 205.594 298.126 206.18 298.351 206.736L298.321 207L294.278 207.015C294.093 206.438 294 205.848 294 205.242C294.01 204.627 294.059 204.021 294.146 203.426ZM295.729 197.347L295.333 199.734L293.238 199.72C292.818 199.729 292.398 199.788 291.979 199.896C291.568 199.993 291.188 200.149 290.836 200.364C290.484 200.569 290.191 200.838 289.957 201.17C289.732 201.502 289.591 201.907 289.532 202.386C289.483 202.728 289.518 203.035 289.635 203.309C289.752 203.572 289.933 203.782 290.177 203.938C290.431 204.095 290.733 204.178 291.085 204.188C291.583 204.197 292.071 204.104 292.55 203.909C293.028 203.704 293.443 203.416 293.795 203.045C294.146 202.674 294.391 202.244 294.527 201.756L295.406 203.587C295.172 204.134 294.874 204.637 294.513 205.096C294.161 205.555 293.756 205.955 293.297 206.297C292.838 206.629 292.335 206.883 291.788 207.059C291.241 207.244 290.655 207.332 290.03 207.322C289.161 207.303 288.36 207.098 287.628 206.707C286.905 206.307 286.329 205.765 285.899 205.081C285.479 204.388 285.289 203.582 285.328 202.664C285.367 201.629 285.626 200.77 286.104 200.086C286.583 199.393 287.198 198.846 287.95 198.445C288.712 198.045 289.537 197.762 290.426 197.596C291.324 197.42 292.213 197.332 293.092 197.332L295.729 197.347ZM311.08 191.15L310.553 194.139H301.573L302.101 191.15H311.08ZM305.001 187.239H309.117L306.539 202.254C306.5 202.596 306.5 202.889 306.539 203.133C306.588 203.367 306.7 203.548 306.876 203.675C307.052 203.802 307.325 203.875 307.696 203.895C307.901 203.904 308.106 203.899 308.312 203.88C308.517 203.851 308.727 203.821 308.941 203.792L308.648 206.941C308.258 207.059 307.862 207.142 307.462 207.19C307.071 207.249 306.671 207.278 306.261 207.278C305.323 207.259 304.552 207.054 303.946 206.663C303.351 206.272 302.921 205.735 302.657 205.052C302.403 204.358 302.32 203.558 302.408 202.649L305.001 187.239ZM318.053 207.293C316.969 207.273 315.992 207.068 315.123 206.678C314.254 206.277 313.526 205.73 312.94 205.037C312.364 204.344 311.939 203.538 311.666 202.62C311.393 201.702 311.295 200.716 311.373 199.661L311.432 199.061C311.549 197.957 311.817 196.907 312.237 195.911C312.657 194.915 313.219 194.036 313.922 193.274C314.625 192.503 315.455 191.902 316.412 191.473C317.379 191.033 318.453 190.828 319.635 190.857C320.738 190.877 321.681 191.102 322.462 191.531C323.243 191.961 323.873 192.537 324.352 193.26C324.83 193.982 325.157 194.808 325.333 195.735C325.509 196.653 325.543 197.615 325.436 198.621L325.201 200.379H312.955L313.409 197.566L321.495 197.581L321.568 197.215C321.646 196.678 321.622 196.18 321.495 195.721C321.368 195.252 321.129 194.876 320.777 194.593C320.426 194.31 319.957 194.158 319.371 194.139C318.697 194.119 318.131 194.261 317.672 194.563C317.213 194.866 316.837 195.267 316.544 195.765C316.251 196.263 316.026 196.805 315.87 197.391C315.714 197.967 315.602 198.523 315.533 199.061L315.475 199.646C315.426 200.164 315.44 200.682 315.519 201.199C315.597 201.707 315.748 202.166 315.973 202.576C316.207 202.986 316.524 203.318 316.925 203.572C317.335 203.826 317.848 203.963 318.463 203.982C319.244 204.002 319.962 203.851 320.616 203.528C321.28 203.196 321.876 202.757 322.403 202.21L324.249 204.437C323.81 205.101 323.248 205.647 322.564 206.077C321.891 206.497 321.163 206.805 320.382 207C319.601 207.205 318.824 207.303 318.053 207.293Z" fill="#3F3D56"/>
<path d="M358.344 167.141H349.625L348.562 173.234H358.812L358.156 177H343.328L347.281 154.25H362.078L361.406 158.047H351.203L350.25 163.469H359L358.344 167.141ZM368.812 165.109L372.359 160.094H377.312L371.188 168.594L374.609 177H370.141L368.062 171.719L364.328 177H359.344L365.719 168.156L362.453 160.094H366.922L368.812 165.109ZM392.875 168.594C392.656 170.365 392.193 171.938 391.484 173.312C390.776 174.688 389.896 175.708 388.844 176.375C387.792 177.042 386.625 177.359 385.344 177.328C383.708 177.286 382.417 176.677 381.469 175.5L379.922 183.5H375.516L379.562 160.094L383.625 160.078L383.328 161.781C384.547 160.406 385.984 159.74 387.641 159.781C389.297 159.823 390.583 160.427 391.5 161.594C392.417 162.75 392.906 164.323 392.969 166.312C392.99 166.958 392.958 167.719 392.875 168.594ZM388.5 168.266L388.594 166.766C388.615 165.755 388.427 164.953 388.031 164.359C387.646 163.766 387.078 163.458 386.328 163.438C385.047 163.396 383.99 163.938 383.156 165.062L381.891 172.031C382.276 173.083 383.104 173.63 384.375 173.672C385.438 173.703 386.323 173.292 387.031 172.438C387.74 171.583 388.229 170.193 388.5 168.266ZM402.297 177.312C400.818 177.302 399.505 176.943 398.359 176.234C397.224 175.516 396.375 174.536 395.812 173.297C395.25 172.047 395.031 170.672 395.156 169.172L395.203 168.547C395.359 166.901 395.839 165.391 396.641 164.016C397.443 162.641 398.474 161.583 399.734 160.844C400.995 160.094 402.391 159.74 403.922 159.781C406.099 159.823 407.745 160.625 408.859 162.188C409.984 163.74 410.411 165.708 410.141 168.094L409.891 170.016H399.531C399.49 171.109 399.755 171.984 400.328 172.641C400.901 173.297 401.682 173.635 402.672 173.656C404.276 173.698 405.682 173.078 406.891 171.797L408.906 174.297C408.271 175.255 407.354 176.005 406.156 176.547C404.958 177.078 403.672 177.333 402.297 177.312ZM403.703 163.422C402.891 163.401 402.167 163.656 401.531 164.188C400.906 164.719 400.344 165.641 399.844 166.953H405.906L406 166.547C406.062 166.13 406.068 165.734 406.016 165.359C405.911 164.755 405.656 164.286 405.25 163.953C404.844 163.609 404.328 163.432 403.703 163.422ZM422.781 164.328C422.177 164.224 421.682 164.172 421.297 164.172C419.724 164.13 418.479 164.719 417.562 165.938L415.609 177H411.203L414.141 160.094L418.281 160.078L417.875 162.141C418.938 160.547 420.25 159.75 421.812 159.75C422.25 159.75 422.76 159.823 423.344 159.969L422.781 164.328ZM432.422 155.938L431.688 160.094H434.5L433.922 163.406H431.109L429.672 171.875C429.609 172.406 429.651 172.812 429.797 173.094C429.943 173.375 430.297 173.526 430.859 173.547C431.026 173.557 431.474 173.531 432.203 173.469L431.891 176.922C431.109 177.182 430.266 177.302 429.359 177.281C427.911 177.26 426.833 176.807 426.125 175.922C425.417 175.036 425.125 173.839 425.25 172.328L426.703 163.406H424.312L424.891 160.094H427.281L428 155.938H432.422Z" fill="#3F3D56"/>
<path d="M197.375 35.7207L209.696 15.9219H219.868L200.614 44.5L197.95 60H188.929L191.805 43.501L182.662 15.9521L192.017 15.9219L197.375 35.7207ZM232.916 60.6055C229.99 60.5449 227.406 59.8587 225.166 58.5469C222.946 57.2148 221.18 55.3076 219.868 52.8252C218.576 50.3226 217.83 47.4567 217.628 44.2275C217.406 40.9176 217.759 37.3857 218.688 33.6318C219.616 29.8779 221.109 26.5781 223.168 23.7324C225.227 20.8867 227.638 18.7575 230.403 17.3447C233.188 15.932 236.196 15.2559 239.425 15.3164C242.392 15.377 244.985 16.0833 247.205 17.4355C249.425 18.7676 251.171 20.695 252.442 23.2178C253.714 25.7204 254.44 28.5661 254.622 31.7549C254.824 35.307 254.44 38.96 253.472 42.7139C252.503 46.4678 250.999 49.7171 248.961 52.4619C246.923 55.2067 244.531 57.2653 241.786 58.6377C239.062 60.0101 236.105 60.666 232.916 60.6055ZM245.479 36.75L245.722 33.874C245.924 30.2816 245.439 27.557 244.269 25.7002C243.118 23.8434 241.362 22.8747 239.001 22.7939C235.308 22.6729 232.371 24.3076 230.191 27.6982C228.032 31.0889 226.811 35.8317 226.528 41.9268C226.326 45.499 226.801 48.2539 227.951 50.1914C229.102 52.1087 230.888 53.1077 233.31 53.1885C236.478 53.3298 239.102 52.0986 241.181 49.4951C243.259 46.8714 244.622 43.168 245.268 38.3848L245.479 36.75ZM297.247 15.9219L292.282 44.9844C291.596 49.8483 289.578 53.693 286.228 56.5186C282.877 59.3441 278.72 60.7165 273.755 60.6357C270.647 60.5752 267.942 59.8991 265.642 58.6074C263.361 57.2956 261.676 55.459 260.586 53.0977C259.496 50.7161 259.123 48.0218 259.466 45.0146L264.4 15.9219H273.271L268.336 45.0449C268.195 46.1751 268.185 47.2347 268.306 48.2236C268.709 51.4932 270.657 53.1885 274.148 53.3096C276.651 53.3903 278.7 52.7041 280.294 51.251C281.888 49.7979 282.918 47.7191 283.382 45.0146L288.347 15.9219H297.247Z" fill="#2F2E41"/>
<line x1="240" y1="72" x2="240" y2="118" stroke="black" stroke-width="4"/>
<line x1="81.9928" y1="117.064" x2="381.991" y2="115.989" stroke="black" stroke-width="4"/>
<line x1="84" y1="118" x2="84" y2="218" stroke="black" stroke-width="4"/>
<line x1="240" y1="114" x2="240" y2="184" stroke="black" stroke-width="4"/>
<line x1="383" y1="114" x2="383" y2="154" stroke="black" stroke-width="4"/>
<path d="M313.5 37.3534L315.352 43.281L315.571 43.9828H316.306H322.406L317.438 47.7366L316.877 48.1609L317.086 48.8327L318.963 54.8403L314.103 51.1677L313.5 50.7122L312.897 51.1677L308.037 54.8403L309.914 48.8327L310.123 48.1609L309.562 47.7366L304.594 43.9828H310.694H311.429L311.648 43.281L313.5 37.3534Z" fill="#F4F4F4" stroke="black" stroke-width="2"/>
<path d="M312.5 2.93492L314.815 9.3235L315.054 9.98278H315.755H322.923L317.222 13.6965L316.557 14.1294L316.827 14.8752L319.064 21.048L313.046 17.1276L312.5 16.7721L311.954 17.1276L305.936 21.048L308.173 14.8752L308.443 14.1294L307.778 13.6965L302.077 9.98278H309.245H309.946L310.185 9.3235L312.5 2.93492Z" fill="#F4F4F4"/>
<path d="M312.5 2.93492L314.815 9.3235L315.054 9.98278H315.755H322.923L317.222 13.6965L316.557 14.1294L316.827 14.8752L319.064 21.048L313.046 17.1276L312.5 16.7721L311.954 17.1276L305.936 21.048L308.173 14.8752L308.443 14.1294L307.778 13.6965L302.077 9.98278H309.245H309.946L310.185 9.3235L312.5 2.93492Z" fill="#F4F4F4"/>
<path d="M312.5 2.93492L314.815 9.3235L315.054 9.98278H315.755H322.923L317.222 13.6965L316.557 14.1294L316.827 14.8752L319.064 21.048L313.046 17.1276L312.5 16.7721L311.954 17.1276L305.936 21.048L308.173 14.8752L308.443 14.1294L307.778 13.6965L302.077 9.98278H309.245H309.946L310.185 9.3235L312.5 2.93492Z" stroke="black" stroke-width="2"/>
<path d="M338.119 14.5915L343.664 24.1957L344.027 24.8249L344.738 24.6738L355.585 22.3681L348.165 30.6095L347.678 31.1494L348.042 31.7786L353.587 41.3828L343.456 36.8721L342.792 36.5766L342.306 37.1165L334.885 45.3579L336.044 34.3288L336.12 33.6062L335.457 33.3107L325.325 28.8L336.173 26.4943L336.884 26.3433L336.96 25.6207L338.119 14.5915Z" fill="#F4F4F4"/>
<path d="M338.119 14.5915L343.664 24.1957L344.027 24.8249L344.738 24.6738L355.585 22.3681L348.165 30.6095L347.678 31.1494L348.042 31.7786L353.587 41.3828L343.456 36.8721L342.792 36.5766L342.306 37.1165L334.885 45.3579L336.044 34.3288L336.12 33.6062L335.457 33.3107L325.325 28.8L336.173 26.4943L336.884 26.3433L336.96 25.6207L338.119 14.5915Z" fill="#F4F4F4"/>
<path d="M338.119 14.5915L343.664 24.1957L344.027 24.8249L344.738 24.6738L355.585 22.3681L348.165 30.6095L347.678 31.1494L348.042 31.7786L353.587 41.3828L343.456 36.8721L342.792 36.5766L342.306 37.1165L334.885 45.3579L336.044 34.3288L336.12 33.6062L335.457 33.3107L325.325 28.8L336.173 26.4943L336.884 26.3433L336.96 25.6207L338.119 14.5915Z" stroke="black" stroke-width="2"/>
</svg>