<svg width="61" height="68" viewBox="0 0 61 68" fill="none" xmlns="http://www.w3.org/2000/svg">
<path d="M11.304 0.210363C9.81664 0.855342 9.14534 2.68498 9.89562 4.05391C10.0536 4.35666 12.8836 7.62104 16.1743 11.3198C19.465 15.0317 22.1766 18.0987 22.2029 18.1513C22.216 18.1908 22.0318 18.3488 21.7817 18.4804C21.0445 18.8753 20.1363 19.8756 19.6888 20.797L19.2676 21.6526L19.2018 24.4958L19.1359 27.3521L18.0829 28.1287C15.9505 29.7083 14.0682 31.6959 14.0682 32.3672C14.0682 32.8279 14.5553 33.3017 15.0423 33.3017C15.345 33.3017 15.7136 32.999 16.8851 31.8143C19.8072 28.8659 23.1243 27.0626 27.2311 26.1675C29.2187 25.7463 33.128 25.7463 35.0893 26.1675C43.1186 27.905 49.1209 34.052 50.6083 42.055C50.9505 43.832 50.9374 47.465 50.6083 49.163C47.8309 63.2999 31.9697 69.9339 19.9784 61.9704C18.3725 60.9174 15.8584 58.4033 14.7395 56.7579C10.896 51.0716 10.2379 44.0953 12.9626 37.6455C13.2785 36.882 13.5417 36.1976 13.5417 36.1186C13.5417 35.7764 12.9889 35.2762 12.6203 35.2762C12.0148 35.2762 11.8306 35.4078 11.4752 36.1054C10.5143 38.014 9.75083 40.6598 9.44808 43.0817C9.23748 44.8587 9.35594 48.0046 9.71134 49.7948C11.2382 57.4424 16.8983 63.8659 24.23 66.2615C32.1803 68.8677 40.7757 66.788 46.6068 60.8516C48.2785 59.1404 49.4895 57.4556 50.5293 55.3495C52.2405 51.914 52.8197 49.4657 52.8328 45.6748C52.8328 43.1212 52.7275 42.1867 52.1615 40.0411C50.9637 35.3946 48.0547 31.0641 44.2112 28.1814L43.0923 27.339L43.0133 24.5616C42.9475 22.1002 42.908 21.6921 42.6448 21.034C42.3025 20.1389 41.2495 18.9279 40.4992 18.5462C40.2096 18.4014 39.999 18.2303 40.0254 18.1645C40.0517 18.0987 42.7896 14.9791 46.1066 11.2408C49.4368 7.50258 52.2668 4.22503 52.3984 3.97494C52.9118 2.9614 52.5827 1.50032 51.6745 0.697388C50.8979 0.0129201 50.5425 -0.0265684 45.738 0.026083C41.4338 0.0787343 41.368 0.0787343 40.5124 0.407805C38.5643 1.15809 38.3142 1.38186 34.1416 6.09415L31.1405 9.49017L30.864 9.22691C30.7061 9.08212 29.2318 7.43676 27.5602 5.55448C23.7298 1.23706 23.1769 0.789528 21.1104 0.263014C20.189 0.026083 19.6624 -0.000242727 15.9242 -0.000242727C12.5019 0.0129201 11.6858 0.0392458 11.304 0.210363ZM21.7685 9.81924C25.6121 14.1367 28.7711 17.7169 28.7843 17.7828C28.8106 17.8486 27.955 17.9012 26.7441 17.9012H24.6512L19.2018 11.7673C11.0671 2.606 11.5673 3.21149 11.5673 2.76395C11.5673 2.13214 11.949 1.97418 13.4759 1.97418H14.8054L21.7685 9.81924ZM20.5838 2.15846C21.3473 2.35591 21.9923 2.65865 22.5978 3.11935C22.9795 3.40893 35.4315 17.2957 35.6948 17.7301C35.7869 17.8617 35.3526 17.9012 33.7072 17.9012H31.6012L24.9671 10.4247C21.3078 6.31792 18.1356 2.73763 17.8986 2.46121L17.4643 1.97418H18.6884C19.3729 1.97418 20.2285 2.05316 20.5838 2.15846ZM44.3823 2.39539C44.1717 2.63233 41.8682 5.22541 39.2751 8.14756L34.5496 13.4653L34.2864 13.1363C34.1284 12.952 33.6677 12.4123 33.2465 11.9385C32.7332 11.3725 32.5094 11.0039 32.5752 10.8986C32.7332 10.6353 37.8403 4.9095 38.8012 3.90912C39.6831 2.98772 40.7362 2.34274 41.6839 2.11897C41.9471 2.05316 42.7632 2.00051 43.474 1.98735L44.7903 1.97418L44.3823 2.39539ZM50.3977 2.23744C50.5425 2.38223 50.6609 2.64549 50.6609 2.81661C50.6609 3.0667 49.1077 4.88317 44.7245 9.8324C41.4601 13.5048 38.6169 16.6902 38.3932 16.914L38.0115 17.3089L37.3533 16.5849C36.9979 16.1901 36.5241 15.6372 36.3134 15.374L35.9186 14.9001L41.6576 8.43714L47.3966 1.97418H48.7655C49.9633 1.97418 50.1739 2.01367 50.3977 2.23744ZM39.1829 20.0863C39.8016 20.3363 40.3413 20.8497 40.6967 21.521C40.9336 21.9685 40.9863 22.3239 41.0257 24.0746C41.0784 25.9964 41.0652 26.1017 40.8415 26.0227C40.6967 25.9832 40.0122 25.7068 39.3014 25.4172C36.6952 24.3379 34.0626 23.8245 31.1141 23.8245C27.7839 23.8245 24.2826 24.6143 21.6895 25.9306L21.1762 26.1938V24.3379C21.1762 22.2055 21.2946 21.6658 21.9528 20.9155C22.861 19.8362 22.5056 19.8756 31.0878 19.8756C37.6692 19.8756 38.7617 19.902 39.1829 20.0863Z" fill="white"/>
<path d="M54.8728 13.4521C54.4384 13.6759 54.162 13.9523 53.8066 14.5315C53.4512 15.1369 53.1616 15.4265 52.5561 15.7819C51.3188 16.5322 50.9108 17.6116 51.4373 18.7567C51.7005 19.3491 51.898 19.5465 52.7404 20.0072C53.1748 20.2441 53.4644 20.5469 53.8066 21.126C54.4121 22.1264 55.136 22.5608 56.0969 22.4686C56.8735 22.4028 57.3079 22.1001 57.8608 21.2445C58.3873 20.4416 58.4662 20.3626 59.2692 19.8361C60.0589 19.3227 60.388 18.9015 60.4802 18.2697C60.6644 17.1509 60.2169 16.3479 59.0717 15.7029C58.5979 15.4265 58.3083 15.1501 58.0319 14.6499C57.2553 13.2941 56.0706 12.8334 54.8728 13.4521ZM56.268 15.5582C56.6761 16.3611 57.1236 16.8613 57.8476 17.2562C58.2425 17.4799 58.5584 17.7432 58.5584 17.8353C58.5584 17.9275 58.2425 18.1907 57.8476 18.4145C57.1236 18.8094 56.6761 19.3096 56.268 20.0993C56.1496 20.3363 55.9785 20.5337 55.8732 20.5337C55.781 20.5337 55.5573 20.2573 55.3598 19.9019C54.9123 19.0858 54.6227 18.783 53.8198 18.3487C53.4644 18.1512 53.1616 17.9275 53.1616 17.8485C53.1616 17.7563 53.5302 17.4799 53.9909 17.2167C54.6622 16.8349 54.8859 16.6112 55.2677 15.9399C55.5178 15.5055 55.8073 15.1369 55.8863 15.1369C55.9785 15.1369 56.1496 15.3344 56.268 15.5582Z" fill="white"/>
<path d="M6.69722 13.5443C6.18387 13.7023 5.60471 14.0314 5.36778 14.2946C5.24931 14.4394 4.81494 15.137 4.42005 15.861L3.6961 17.1773L2.27451 17.9802C1.20832 18.5725 0.747619 18.9148 0.458036 19.3228C-0.252758 20.3232 -0.121129 21.8633 0.747619 22.6662C0.945061 22.8505 1.68218 23.3243 2.39297 23.7192L3.6961 24.4432L4.44638 25.8121C5.32829 27.3916 5.93378 27.9708 6.90783 28.1156C8.1583 28.2999 9.13235 27.6944 9.94845 26.207C10.8698 24.509 10.9488 24.4168 12.2519 23.7192C14.0947 22.7188 14.5949 22.087 14.5949 20.7707C14.5949 19.4939 14.0947 18.9016 12.1335 17.8486L10.9225 17.1904L10.1985 15.8478C9.39561 14.3999 8.8296 13.7813 8.053 13.5707C7.48699 13.4127 7.17109 13.3995 6.69722 13.5443ZM7.60546 15.5319C7.73709 15.5977 8.18463 16.269 8.60584 17.0325C9.01388 17.7959 9.46142 18.5067 9.57989 18.612C9.69835 18.7173 10.4091 19.1517 11.1726 19.5729C12.4362 20.2705 12.5547 20.3758 12.5942 20.7576C12.6468 21.2183 12.4757 21.3631 10.7909 22.245C9.67203 22.8373 9.34296 23.2059 8.55319 24.6669C7.78974 26.0754 7.61862 26.2596 7.15792 26.1412C6.92099 26.0754 6.6709 25.7463 6.15755 24.7986C5.78899 24.1141 5.34145 23.377 5.1835 23.1795C5.01238 22.9821 4.24893 22.4819 3.47233 22.0607C2.69572 21.6395 2.03758 21.2051 1.99809 21.113C1.81381 20.6128 2.09023 20.31 3.41968 19.5992C4.95973 18.77 5.24931 18.4936 6.1049 16.9009C6.89467 15.4266 7.09211 15.2555 7.60546 15.5319Z" fill="white"/>
<path d="M29.4688 29.8135C29.3635 29.8398 28.8238 29.9319 28.2842 30.0109C22.7558 30.906 17.8197 35.2102 16.0559 40.6465C15.4504 42.5024 15.3188 43.4502 15.3319 45.7405C15.3319 47.478 15.3846 48.0703 15.6347 49.0707C17.0168 54.6781 20.8998 58.9165 26.2702 60.6672C27.9419 61.2068 29.1661 61.3911 31.1142 61.3911C33.6546 61.3911 35.7212 60.9436 37.8667 59.93C40.0649 58.8902 42.7633 56.7183 42.7633 55.9812C42.7633 55.4415 42.3289 55.0203 41.7629 55.0203C41.3944 55.0203 41.1574 55.1519 40.4598 55.8101C36.4451 59.5352 30.3771 60.5224 25.4015 58.232C23.3481 57.2843 21.2552 55.5731 19.8468 53.704C19.057 52.6378 18.0698 50.5186 17.6617 49.0312C17.3458 47.8465 17.3063 47.4912 17.3195 45.543C17.3195 43.7397 17.3722 43.2001 17.5959 42.3445C18.5568 38.8037 20.5707 35.9605 23.4534 34.0387C26.8889 31.7616 31.3116 31.1166 35.1947 32.3407C43.0134 34.8153 47.0807 43.5028 43.8821 50.9398C43.4214 52.006 43.3951 52.5983 43.8032 52.9406C44.5271 53.5197 45.1721 53.0722 45.7644 51.598C47.6072 47.0305 47.2518 41.8311 44.8035 37.6453C42.3289 33.4201 38.0773 30.5769 33.2202 29.8793C32.391 29.7608 29.9558 29.7213 29.4688 29.8135Z" fill="white"/>
<path d="M27.6788 35.8157C26.9022 36.0395 26.0203 36.7503 25.5991 37.5006C25.27 38.0929 25.2042 38.3693 25.2042 39.0801C25.191 40.9756 26.4678 42.3708 28.4159 42.6078L29.0609 42.6867L29.1004 48.2283L29.1399 53.7699L29.5085 54.5201C30.1666 55.8627 31.4171 56.5735 32.8913 56.4288C34.1023 56.3234 35.1027 55.6521 35.695 54.5596C35.9846 54.0331 35.9846 53.9673 35.9846 46.7935V39.554L35.5634 38.6984C34.8262 37.211 33.7074 36.2764 32.1673 35.8815C31.2986 35.6446 28.3764 35.6051 27.6788 35.8157ZM32.3121 38.0008C33.0098 38.3693 33.7206 39.1986 33.918 39.8699C34.0365 40.2253 34.076 42.3313 34.076 46.8857V53.4013L33.7732 53.8488C33.4441 54.3359 32.7728 54.5991 32.2068 54.4543C31.7461 54.3359 31.2328 53.7699 31.1275 53.296C31.088 53.0591 31.0485 50.2554 31.0485 47.0436C31.0485 40.12 31.1933 40.6728 29.4426 40.6728C28.5871 40.6728 28.258 40.6202 27.9289 40.4096C27.0338 39.8699 26.889 38.8037 27.5998 38.1456C28.1132 37.6585 28.179 37.6454 30.0613 37.6849C31.5224 37.7112 31.8514 37.7638 32.3121 38.0008Z" fill="white"/>
</svg>
