<svg width="70" height="70" viewBox="0 0 70 70" fill="none" xmlns="http://www.w3.org/2000/svg">
<path d="M31.7809 0.289106C27.2291 1.33534 23.411 2.96584 19.688 5.45235C11.9839 10.6292 6.69835 18.5371 4.89122 27.6271C4.32054 30.4397 4.14391 32.6681 4.23902 35.6709C4.40207 40.6304 5.40754 44.8425 7.5136 49.4351L7.98917 50.4677L7.32338 51.2965C6.49454 52.3292 5.6657 53.9869 5.33961 55.2233L5.09503 56.188L4.32054 56.4734C1.31771 57.5604 -0.530191 60.9301 0.135596 64.1096C0.679096 66.7048 2.89386 68.8788 5.48907 69.3815C6.07333 69.4902 9.32074 69.5174 16.6987 69.4902C28.1666 69.4494 27.5552 69.4902 29.0634 68.5798L29.6748 68.213L30.6259 68.4575C37.0936 70.1288 44.8113 69.7348 51.1566 67.4113C53.086 66.7048 56.6188 64.9384 58.2765 63.8514C62.312 61.1882 65.8991 57.6147 68.4943 53.6336C69.6764 51.7993 69.8258 51.0384 69.1193 50.1552C68.4535 49.3128 67.4888 49.2041 65.9806 49.8019C49.9881 56.1609 32.0526 47.0029 27.8405 30.331C26.8486 26.4043 26.7263 21.6622 27.5144 17.749C28.4927 12.9391 30.7754 8.34649 33.982 4.71863C35.5582 2.93867 35.6125 2.85714 35.6805 2.20494C35.8163 1.03642 35.0147 0.0852938 33.8326 0.00376884C33.4929 -0.0234061 32.5689 0.0988813 31.7809 0.289106ZM27.8948 6.02303C26.8214 7.63994 25.3268 10.7651 24.5795 12.9934C22.8131 18.2654 22.4327 24.57 23.5604 30.0049C24.8105 36.0514 27.7997 41.663 32.1613 46.1061C36.0337 50.0601 40.5448 52.8319 45.776 54.4624C49.0234 55.4679 51.7273 55.8619 55.491 55.8484C58.0998 55.8484 60.1515 55.6717 61.8092 55.2913C62.2848 55.1826 60.5456 56.9625 58.752 58.4164C51.8496 64.0144 42.8411 66.4466 34.281 65.0335C32.2428 64.7074 32.1477 64.6666 32.2428 64.2998C33.0173 61.0931 31.1694 57.574 28.1122 56.4598L27.3513 56.188L26.9709 54.8972C26.4138 53.0901 25.5986 51.7585 24.1175 50.2775C22.8267 48.9867 21.862 48.3345 20.313 47.723C17.8944 46.7583 14.7421 46.7176 12.3508 47.6279C11.9431 47.791 11.5355 47.9133 11.454 47.9133C11.0464 47.9133 9.42944 43.3479 8.89953 40.7119C7.52719 33.8094 8.39679 27.0293 11.454 20.8062C14.7421 14.1348 19.9326 9.18891 26.8894 6.11814C28.1394 5.56105 28.2074 5.56105 27.8948 6.02303ZM17.976 51.2558C20.9245 52.0167 22.9762 54.4217 23.3702 57.6147C23.4517 58.2262 23.6148 58.892 23.7642 59.1229C24.0903 59.6529 24.7018 60.0061 25.286 60.0061C26.6856 60.0061 27.9356 60.8757 28.2481 62.0578C28.547 63.1313 28.0035 64.4628 27.066 65.0607L26.5497 65.3732L16.3591 65.414L6.15485 65.4411L5.55701 65.1286C3.96727 64.2998 3.60041 62.3432 4.78252 61.0116C5.33961 60.373 5.73364 60.1828 6.90217 60.0197C8.36962 59.8295 8.84518 59.2996 9.02182 57.6963C9.23921 55.7261 10.0545 54.1092 11.4404 52.8727C13.1796 51.2965 15.7069 50.6715 17.976 51.2558Z" fill="white"/>
<path d="M47.7464 12.9527C43.6838 13.8223 40.1103 17.2192 39.2271 21.0645C39.064 21.7846 39.0097 21.8797 38.5749 22.0564C36.6047 22.858 35.4498 23.8907 34.6073 25.5755C34.0774 26.6489 34.0367 26.812 33.9823 28.1164C33.9415 29.1898 33.9823 29.7197 34.1589 30.3311C34.8247 32.6682 36.7677 34.5161 39.132 35.0732C40.4228 35.3721 59.8257 35.3721 61.1165 35.0732C62.9508 34.6384 64.5949 33.3747 65.4645 31.7306C66.0624 30.6301 66.2934 29.7197 66.2934 28.4696C66.2934 26.7033 65.7091 25.2358 64.4455 23.8635C63.834 23.2113 63.3992 22.8988 62.4073 22.4232C61.2252 21.839 61.1573 21.7846 61.0622 21.309C60.7632 19.7057 59.6491 17.6676 58.236 16.1594C55.6815 13.4283 51.4966 12.1511 47.7464 12.9527ZM51.646 16.9475C53.5347 17.3415 55.5185 18.8497 56.4152 20.5753C57.0131 21.7303 57.149 22.1786 57.312 23.4966C57.5022 25.1135 57.9642 25.6027 59.4453 25.7793C61.1573 25.9967 62.0812 26.8527 62.1899 28.3338C62.2715 29.5431 61.6736 30.5214 60.5594 30.9969C60.111 31.1736 58.7795 31.2007 50.0971 31.2007C40.6945 31.2007 40.1103 31.1871 39.5939 30.9426C38.5341 30.4534 38.0314 29.6518 38.0314 28.4696C38.0314 26.8935 39.2814 25.7657 41.0342 25.7657C41.9989 25.7657 42.9229 24.7603 42.9229 23.7004C42.9229 20.752 45.2735 17.8442 48.3579 16.9882C49.1324 16.7708 50.7221 16.7572 51.646 16.9475Z" fill="white"/>
</svg>
