<svg width="67" height="68" viewBox="0 0 67 68" fill="none" xmlns="http://www.w3.org/2000/svg">
<path d="M1.04602 0.235678C0.797271 0.353505 0.469975 0.628433 0.325965 0.824811C0.064128 1.19138 0.0510362 1.34848 0.0510362 6.54595C0.0510362 11.7434 0.064128 11.9005 0.325965 12.2671C0.92819 13.0919 0.954373 13.0919 6.72788 13.0919C12.5014 13.0919 12.5276 13.0919 13.1298 12.2671C13.3785 11.9267 13.4047 11.678 13.444 9.74036L13.4833 7.5933H14.7925H16.0885V18.2501V28.8937L16.3897 29.3389C16.9002 30.1113 17.3454 30.2422 19.4662 30.2422H21.3253V31.4205V32.5987L16.4028 32.5725L11.4933 32.5333L11.2053 31.6692C10.6816 30.1113 9.4248 28.789 7.84068 28.1344C7.25155 27.8857 6.87189 27.8333 5.74599 27.8333C4.42371 27.8202 4.33207 27.8333 3.36327 28.3046C-1.63781 30.6873 -0.839209 37.8747 4.55463 39.1446C5.41869 39.3541 6.88498 39.2494 7.73595 38.9352C9.32006 38.3329 10.7733 36.8274 11.2184 35.3349L11.4409 34.5625H16.3897H21.3253V35.6753V36.7881H19.4662C17.3977 36.7881 16.9395 36.919 16.4289 37.6129C16.154 37.9795 16.154 38.1235 16.0885 48.741L16.0231 59.5025L14.7532 59.5417L13.4702 59.581V57.5125C13.4702 55.7975 13.4309 55.3654 13.2345 54.9989C12.8418 54.2134 12.4228 54.0039 11.1006 53.9515C9.62118 53.8992 9.33315 53.9777 9.07132 54.4752C8.90112 54.8156 8.90112 54.9465 9.03204 55.2607C9.24151 55.7975 9.50335 55.9022 10.5769 55.9022H11.5064V60.4844V65.0665H6.72788H1.94935V60.4844V55.9022H3.76912C5.4056 55.9022 5.61507 55.876 5.92927 55.6273C6.40058 55.2476 6.40058 54.5799 5.91618 54.2003C5.57579 53.9384 5.44488 53.9253 3.37636 53.9646C1.3995 54.0039 1.15075 54.0301 0.810363 54.2788C-0.0144231 54.881 -0.0275149 54.9072 0.0117606 60.6415C0.0510362 65.6556 0.064128 65.852 0.325965 66.2055C0.92819 67.0303 0.954373 67.0303 6.72788 67.0303C12.5014 67.0303 12.5276 67.0303 13.1298 66.2055C13.3785 65.8651 13.4047 65.6164 13.444 63.6788L13.4833 61.5317H14.6877C16.1409 61.5186 16.9657 61.3484 17.3846 60.9687C18.0654 60.3403 18.0523 60.6284 18.0523 49.2908V38.7519H19.6888H21.3253V39.9956C21.3253 41.8023 21.7704 42.6663 22.9618 43.2162C23.4331 43.4388 23.8782 43.465 27.9759 43.465H32.4534V49.5134V55.5749L31.694 55.7975C30.2146 56.2295 28.7745 57.5911 28.12 59.1752C27.8712 59.7643 27.8188 60.144 27.8188 61.2699C27.8058 62.5921 27.8188 62.6838 28.2901 63.6657C30.0183 67.2921 34.7313 68.1431 37.533 65.3414C39.1564 63.718 39.6801 61.2699 38.8684 59.1621C38.2661 57.6172 36.682 56.1379 35.2026 55.7582L34.5481 55.588V49.5265V43.465H39.0386C43.1232 43.465 43.5683 43.4388 44.0527 43.2162C45.2441 42.6794 45.663 41.8416 45.6761 40.0218V38.7519H47.3126H48.9491V49.2908C48.9491 60.6284 48.936 60.3403 49.6168 60.9687C50.0357 61.3484 50.8605 61.5186 52.3137 61.5317H53.5181L53.5574 63.6788C53.5967 65.6164 53.6229 65.8651 53.8716 66.2055C54.4738 67.0303 54.5 67.0303 60.2735 67.0303C66.047 67.0303 66.0732 67.0303 66.6754 66.2055C66.9373 65.8389 66.9504 65.6818 66.9504 60.4844C66.9504 55.2869 66.9373 55.1298 66.6754 54.7632C66.0732 53.9384 66.047 53.9384 60.2735 53.9384C54.5 53.9384 54.4738 53.9384 53.8716 54.7632C53.6229 55.1036 53.5967 55.3523 53.5574 57.3554L53.5181 59.581L52.2482 59.5417L50.9783 59.5025L50.9129 48.741C50.8474 38.1235 50.8474 37.9795 50.5725 37.6129C50.0619 36.919 49.6037 36.7881 47.5483 36.7881H45.6761V35.6753V34.5625H50.6248H55.5736L55.7437 35.2171C55.9794 36.1466 56.7911 37.3249 57.6682 38.0187C61.1507 40.7418 66.1649 38.765 66.9242 34.3661C67.3431 31.9179 65.9947 29.4305 63.6512 28.3046C62.6824 27.8464 62.5646 27.8202 61.3209 27.8202C60.2735 27.8202 59.8546 27.8857 59.2131 28.1213C57.6159 28.7366 56.2543 30.1636 55.7568 31.7739L55.5212 32.5333L50.5987 32.5725L45.6761 32.5987V31.4205V30.2422H47.5483C49.656 30.2422 50.1012 30.1113 50.6117 29.3389C50.9129 28.9068 50.9129 28.8283 50.9129 25.0054V21.1172L50.6117 20.8422C50.2059 20.4626 49.6691 20.4757 49.2764 20.8815L48.9491 21.1957V24.7436V28.2784H47.1424H45.3226L44.9692 27.8726C44.1967 27.0085 43.9742 26.9692 39.3789 26.9692C36.2238 26.9692 35.2026 26.93 35.0979 26.799C35.0194 26.7205 34.8753 26.2754 34.7575 25.8433C34.5742 25.1495 34.5481 24.0236 34.5481 18.237V11.4423L35.2026 11.2721C36.5642 10.9186 37.9257 9.74036 38.6589 8.31335C40.7274 4.17632 37.1402 -0.680751 32.5843 0.10476C30.6467 0.432056 29.1411 1.58414 28.2901 3.37772C27.8188 4.34652 27.8058 4.43816 27.8188 5.76044C27.8188 6.88634 27.8712 7.266 28.12 7.85513C28.7745 9.43925 30.2146 10.8008 31.694 11.2328L32.4534 11.4554V17.5038V23.5653H28.0021C23.1451 23.5653 22.9749 23.5915 22.1893 24.3247C21.5348 24.94 21.3253 25.5815 21.3253 26.9954V28.2784H19.6888H18.0523V17.7395C18.0523 6.32339 18.0785 6.70305 17.3454 6.02227C17.005 5.70807 16.8871 5.69498 15.2376 5.6557L13.4833 5.60333L13.444 3.4039C13.4047 1.41394 13.3785 1.1652 13.1298 0.824811C12.5276 2.47955e-05 12.5014 2.47955e-05 6.72788 2.47955e-05C2.00172 2.47955e-05 1.45186 0.0262085 1.04602 0.235678ZM11.5064 6.54595V11.1281H6.72788H1.94935V6.54595V1.9638H6.72788H11.5064V6.54595ZM35.111 2.34347C35.4252 2.50057 35.9358 2.86714 36.2369 3.16825C37.9519 4.90947 37.4937 7.89441 35.3074 9.11195C34.6921 9.45234 34.4957 9.49161 33.5007 9.49161C32.6105 9.49161 32.2832 9.42615 31.8511 9.20359C31.0263 8.75847 30.5812 8.33953 30.1754 7.5802C29.0495 5.52478 30.1099 2.88023 32.3486 2.14709C33.1079 1.89834 34.3779 1.98999 35.111 2.34347ZM32.545 25.6339C32.6235 25.6862 32.7937 26.1444 32.9247 26.6419C33.1996 27.7286 33.8542 28.5402 34.6528 28.7759C34.9932 28.8806 36.5118 28.933 39.1957 28.933C42.7697 28.933 43.2672 28.9592 43.4767 29.1556C43.6993 29.3519 43.7123 29.7185 43.7123 35.1909C43.7123 40.4276 43.6862 41.043 43.4898 41.2655C43.2934 41.4881 42.809 41.5012 33.5269 41.5012C24.6244 41.5012 23.7473 41.4881 23.5247 41.2786C23.3022 41.0822 23.2891 40.6633 23.2891 33.5413C23.2891 26.7205 23.3152 25.9873 23.5116 25.7648C23.708 25.5422 24.0222 25.5291 28.0545 25.5291C30.4372 25.5291 32.4534 25.5815 32.545 25.6339ZM7.39556 30.0851C8.20726 30.504 8.66547 30.9361 9.08441 31.7085C9.43789 32.3238 9.47716 32.5333 9.47716 33.5151C9.47716 34.497 9.43789 34.7065 9.0975 35.3218C8.44291 36.5001 7.35629 37.1809 6.00783 37.2725C4.4499 37.3903 3.02289 36.5525 2.31593 35.0993C1.89699 34.2483 1.89699 32.782 2.31593 31.931C2.72177 31.1062 3.57274 30.2946 4.37135 29.9804C5.22232 29.64 6.62314 29.6792 7.39556 30.0851ZM62.6039 29.9804C63.4287 30.2946 64.2665 31.0801 64.6855 31.931C64.9211 32.3893 64.9866 32.7558 64.9866 33.5151C64.9866 34.6934 64.6855 35.4135 63.8476 36.2513C62.473 37.6129 60.2343 37.6522 58.6763 36.343C57.7468 35.5575 57.2362 33.7901 57.5766 32.5333C58.1526 30.36 60.483 29.1817 62.6039 29.9804ZM65.0521 60.4844V65.0665H60.2735H55.495V60.4844V55.9022H60.2735H65.0521V60.4844ZM35.1503 57.8398C35.962 58.2587 36.4202 58.6908 36.826 59.4501C37.8603 61.3484 37.0748 63.718 35.0848 64.6999C34.2338 65.1189 32.7676 65.1189 31.9166 64.6999C28.8138 63.1813 29.0364 58.861 32.2832 57.6565C32.9901 57.3947 34.4695 57.4863 35.1503 57.8398Z" fill="white"/>
<path d="M54.5913 0.235829C53.6748 0.694043 53.5963 0.942789 53.557 3.40406L53.5177 5.60349L51.7634 5.65585C50.0222 5.69513 50.0091 5.69513 49.6033 6.08788C49.3807 6.29735 49.1451 6.67702 49.0665 6.93885C48.988 7.22688 48.9487 9.21684 48.9749 12.4112L49.0142 17.4385L49.3284 17.6873C49.7473 18.0276 50.2055 18.0015 50.5852 17.6087L50.9125 17.2945V12.4374V7.59345H52.2086H53.5177L53.557 9.74051C53.5963 11.6781 53.6225 11.9268 53.8712 12.2672C54.4735 13.092 54.4996 13.092 60.2731 13.092C66.0466 13.092 66.0728 13.092 66.6751 12.2672C66.9369 11.9007 66.95 11.7436 66.95 6.5461C66.95 1.34864 66.9369 1.19153 66.6751 0.824962C66.0728 0.000175572 66.0466 0.000175572 60.2731 0.000175572C55.547 0.000175572 54.9971 0.0263593 54.5913 0.235829ZM65.0517 6.5461V11.1282H60.2731H55.4946V6.5461V1.96395H60.2731H65.0517V6.5461Z" fill="white"/>
</svg>
