<svg width="455" height="254" viewBox="0 0 455 254" fill="none" xmlns="http://www.w3.org/2000/svg">
<path d="M35.9062 236.016H30.0312L30.5781 232.797L35.1094 232.812C35.7969 232.812 36.4531 232.719 37.0781 232.531C37.7135 232.333 38.2448 232.016 38.6719 231.578C39.1094 231.13 39.3854 230.531 39.5 229.781C39.5938 229.073 39.5312 228.516 39.3125 228.109C39.0938 227.703 38.7448 227.411 38.2656 227.234C37.7969 227.047 37.2396 226.948 36.5938 226.938L33.2188 226.922L29.9062 246H25.3281L29.2656 223.25L36.7344 223.266C37.7135 223.276 38.6615 223.391 39.5781 223.609C40.4948 223.828 41.3073 224.172 42.0156 224.641C42.724 225.109 43.2708 225.729 43.6562 226.5C44.0521 227.271 44.2135 228.219 44.1406 229.344C44.0677 230.573 43.7135 231.583 43.0781 232.375C42.4427 233.156 41.6302 233.745 40.6406 234.141C39.6615 234.536 38.6094 234.766 37.4844 234.828L35.9062 236.016ZM34.0469 246H26.9531L29.3594 242.344L34.1875 242.359C34.875 242.359 35.5156 242.245 36.1094 242.016C36.7135 241.776 37.2188 241.422 37.625 240.953C38.0312 240.484 38.2865 239.885 38.3906 239.156C38.4844 238.542 38.4583 238.005 38.3125 237.547C38.1667 237.078 37.8958 236.719 37.5 236.469C37.1146 236.208 36.599 236.062 35.9531 236.031L31.3281 236.016L31.9062 232.797L37.2188 232.812L38 234.062C39.0208 234.115 39.9062 234.349 40.6562 234.766C41.4167 235.172 41.9948 235.75 42.3906 236.5C42.7865 237.25 42.9479 238.151 42.875 239.203C42.7708 240.828 42.2969 242.141 41.4531 243.141C40.6094 244.141 39.5312 244.87 38.2188 245.328C36.9167 245.786 35.526 246.01 34.0469 246ZM52.8125 246.312C51.6562 246.292 50.6146 246.073 49.6875 245.656C48.7604 245.229 47.9844 244.646 47.3594 243.906C46.7448 243.167 46.2917 242.307 46 241.328C45.7083 240.349 45.6042 239.297 45.6875 238.172L45.75 237.531C45.875 236.354 46.1615 235.234 46.6094 234.172C47.0573 233.109 47.6562 232.172 48.4062 231.359C49.1562 230.536 50.0417 229.896 51.0625 229.438C52.0938 228.969 53.2396 228.75 54.5 228.781C55.6771 228.802 56.6823 229.042 57.5156 229.5C58.349 229.958 59.0208 230.573 59.5312 231.344C60.0417 232.115 60.3906 232.995 60.5781 233.984C60.7656 234.964 60.8021 235.99 60.6875 237.062L60.4375 238.938H47.375L47.8594 235.938L56.4844 235.953L56.5625 235.562C56.6458 234.99 56.6198 234.458 56.4844 233.969C56.349 233.469 56.0938 233.068 55.7188 232.766C55.3438 232.464 54.8438 232.302 54.2188 232.281C53.5 232.26 52.8958 232.411 52.4062 232.734C51.9167 233.057 51.5156 233.484 51.2031 234.016C50.8906 234.547 50.651 235.125 50.4844 235.75C50.3177 236.365 50.1979 236.958 50.125 237.531L50.0625 238.156C50.0104 238.708 50.026 239.26 50.1094 239.812C50.1927 240.354 50.3542 240.844 50.5938 241.281C50.8438 241.719 51.1823 242.073 51.6094 242.344C52.0469 242.615 52.5938 242.76 53.25 242.781C54.0833 242.802 54.849 242.641 55.5469 242.297C56.2552 241.943 56.8906 241.474 57.4531 240.891L59.4219 243.266C58.9531 243.974 58.3542 244.557 57.625 245.016C56.9062 245.464 56.1302 245.792 55.2969 246C54.4635 246.219 53.6354 246.323 52.8125 246.312ZM74.9375 229.094H78.9688L76.1719 245.422C75.9635 246.974 75.4479 248.297 74.625 249.391C73.8021 250.484 72.7552 251.312 71.4844 251.875C70.224 252.438 68.8229 252.703 67.2812 252.672C66.5312 252.651 65.7917 252.536 65.0625 252.328C64.3333 252.12 63.651 251.812 63.0156 251.406C62.3802 251.01 61.8281 250.516 61.3594 249.922L63.5312 247.328C63.9896 247.932 64.5312 248.401 65.1562 248.734C65.7812 249.078 66.474 249.26 67.2344 249.281C68.0469 249.302 68.7656 249.156 69.3906 248.844C70.0156 248.531 70.5312 248.089 70.9375 247.516C71.3438 246.943 71.6146 246.26 71.75 245.469L73.9062 232.781L74.9375 229.094ZM62.4531 237.859L62.5 237.531C62.625 236.469 62.875 235.417 63.25 234.375C63.625 233.323 64.1302 232.37 64.7656 231.516C65.401 230.661 66.1771 229.984 67.0938 229.484C68.0104 228.984 69.0781 228.75 70.2969 228.781C71.4219 228.812 72.3333 229.094 73.0312 229.625C73.7292 230.146 74.2604 230.828 74.625 231.672C74.9896 232.505 75.2292 233.411 75.3438 234.391C75.4688 235.37 75.5104 236.323 75.4688 237.25L75.3906 237.984C75.224 238.922 74.9479 239.885 74.5625 240.875C74.1771 241.865 73.6771 242.781 73.0625 243.625C72.4479 244.458 71.7083 245.125 70.8438 245.625C69.9896 246.125 69.0156 246.359 67.9219 246.328C66.7865 246.297 65.8438 246.021 65.0938 245.5C64.3542 244.979 63.7708 244.307 63.3438 243.484C62.9271 242.651 62.651 241.745 62.5156 240.766C62.3802 239.776 62.3594 238.807 62.4531 237.859ZM66.9062 237.516L66.8594 237.859C66.8073 238.328 66.7865 238.844 66.7969 239.406C66.8177 239.958 66.901 240.49 67.0469 241C67.2031 241.51 67.4583 241.932 67.8125 242.266C68.1667 242.589 68.6562 242.76 69.2812 242.781C70.1042 242.823 70.8073 242.651 71.3906 242.266C71.9844 241.88 72.4583 241.37 72.8125 240.734C73.1667 240.089 73.4115 239.406 73.5469 238.688L73.8438 236.609C73.8854 236.109 73.8802 235.609 73.8281 235.109C73.776 234.609 73.651 234.151 73.4531 233.734C73.2656 233.318 72.9844 232.979 72.6094 232.719C72.2448 232.458 71.7604 232.323 71.1562 232.312C70.4583 232.281 69.8542 232.427 69.3438 232.75C68.8438 233.073 68.4271 233.5 68.0938 234.031C67.7604 234.552 67.4948 235.12 67.2969 235.734C67.099 236.349 66.9688 236.943 66.9062 237.516ZM86.9688 229.094L84.0469 246H79.6406L82.5781 229.094H86.9688ZM83.0625 224.766C83.0417 224.057 83.2708 223.49 83.75 223.062C84.2396 222.635 84.8281 222.417 85.5156 222.406C86.1719 222.396 86.7448 222.594 87.2344 223C87.724 223.396 87.9688 223.932 87.9688 224.609C87.9896 225.318 87.7552 225.885 87.2656 226.312C86.776 226.74 86.1927 226.958 85.5156 226.969C84.8594 226.979 84.2865 226.786 83.7969 226.391C83.3177 225.995 83.0729 225.453 83.0625 224.766ZM94.1875 232.953L91.9219 246H87.5156L90.4531 229.094H94.5781L94.1875 232.953ZM92.8906 236.953L91.7969 236.984C91.9115 235.974 92.1406 234.974 92.4844 233.984C92.8281 232.995 93.2969 232.104 93.8906 231.312C94.4948 230.51 95.2292 229.88 96.0938 229.422C96.9688 228.964 97.9844 228.745 99.1406 228.766C100.078 228.797 100.849 228.995 101.453 229.359C102.068 229.714 102.536 230.193 102.859 230.797C103.193 231.401 103.406 232.083 103.5 232.844C103.604 233.604 103.615 234.396 103.531 235.219L101.719 246H97.2969L99.125 235.172C99.1875 234.62 99.1719 234.13 99.0781 233.703C98.9844 233.276 98.776 232.938 98.4531 232.688C98.1406 232.438 97.6823 232.307 97.0781 232.297C96.4115 232.276 95.8333 232.401 95.3438 232.672C94.8646 232.943 94.4583 233.307 94.125 233.766C93.7917 234.224 93.526 234.729 93.3281 235.281C93.1302 235.833 92.9844 236.391 92.8906 236.953ZM111.594 232.953L109.328 246H104.922L107.859 229.094H111.984L111.594 232.953ZM110.297 236.953L109.203 236.984C109.318 235.974 109.547 234.974 109.891 233.984C110.234 232.995 110.703 232.104 111.297 231.312C111.901 230.51 112.635 229.88 113.5 229.422C114.375 228.964 115.391 228.745 116.547 228.766C117.484 228.797 118.255 228.995 118.859 229.359C119.474 229.714 119.943 230.193 120.266 230.797C120.599 231.401 120.812 232.083 120.906 232.844C121.01 233.604 121.021 234.396 120.938 235.219L119.125 246H114.703L116.531 235.172C116.594 234.62 116.578 234.13 116.484 233.703C116.391 233.276 116.182 232.938 115.859 232.688C115.547 232.438 115.089 232.307 114.484 232.297C113.818 232.276 113.24 232.401 112.75 232.672C112.271 232.943 111.865 233.307 111.531 233.766C111.198 234.224 110.932 234.729 110.734 235.281C110.536 235.833 110.391 236.391 110.297 236.953ZM130.375 246.312C129.219 246.292 128.177 246.073 127.25 245.656C126.323 245.229 125.547 244.646 124.922 243.906C124.307 243.167 123.854 242.307 123.562 241.328C123.271 240.349 123.167 239.297 123.25 238.172L123.312 237.531C123.438 236.354 123.724 235.234 124.172 234.172C124.62 233.109 125.219 232.172 125.969 231.359C126.719 230.536 127.604 229.896 128.625 229.438C129.656 228.969 130.802 228.75 132.062 228.781C133.24 228.802 134.245 229.042 135.078 229.5C135.911 229.958 136.583 230.573 137.094 231.344C137.604 232.115 137.953 232.995 138.141 233.984C138.328 234.964 138.365 235.99 138.25 237.062L138 238.938H124.938L125.422 235.938L134.047 235.953L134.125 235.562C134.208 234.99 134.182 234.458 134.047 233.969C133.911 233.469 133.656 233.068 133.281 232.766C132.906 232.464 132.406 232.302 131.781 232.281C131.062 232.26 130.458 232.411 129.969 232.734C129.479 233.057 129.078 233.484 128.766 234.016C128.453 234.547 128.214 235.125 128.047 235.75C127.88 236.365 127.76 236.958 127.688 237.531L127.625 238.156C127.573 238.708 127.589 239.26 127.672 239.812C127.755 240.354 127.917 240.844 128.156 241.281C128.406 241.719 128.745 242.073 129.172 242.344C129.609 242.615 130.156 242.76 130.812 242.781C131.646 242.802 132.411 242.641 133.109 242.297C133.818 241.943 134.453 241.474 135.016 240.891L136.984 243.266C136.516 243.974 135.917 244.557 135.188 245.016C134.469 245.464 133.693 245.792 132.859 246C132.026 246.219 131.198 246.323 130.375 246.312ZM145.859 233.016L143.609 246H139.219L142.156 229.094H146.281L145.859 233.016ZM151.375 228.953L150.828 233.156C150.578 233.115 150.323 233.078 150.062 233.047C149.812 233.016 149.557 232.995 149.297 232.984C148.693 232.974 148.146 233.052 147.656 233.219C147.167 233.385 146.74 233.63 146.375 233.953C146.021 234.266 145.719 234.651 145.469 235.109C145.229 235.568 145.047 236.083 144.922 236.656L144.062 236.375C144.167 235.573 144.339 234.729 144.578 233.844C144.828 232.948 145.172 232.115 145.609 231.344C146.057 230.562 146.625 229.932 147.312 229.453C148.01 228.964 148.859 228.724 149.859 228.734C150.12 228.734 150.37 228.755 150.609 228.797C150.859 228.839 151.115 228.891 151.375 228.953Z" fill="#D7D7D7"/>
<path d="M167.569 185.672L163.878 207H159.586L163.292 185.672H167.569ZM173.736 194.769L171.612 207H167.481L170.235 191.15H174.103L173.736 194.769ZM172.521 198.519L171.495 198.548C171.603 197.601 171.817 196.663 172.14 195.735C172.462 194.808 172.901 193.973 173.458 193.23C174.024 192.479 174.713 191.888 175.523 191.458C176.344 191.028 177.296 190.823 178.38 190.843C179.259 190.872 179.981 191.058 180.548 191.399C181.124 191.731 181.563 192.181 181.866 192.747C182.179 193.313 182.379 193.953 182.467 194.666C182.564 195.379 182.574 196.121 182.496 196.893L180.797 207H176.651L178.365 196.849C178.424 196.331 178.409 195.872 178.321 195.472C178.233 195.071 178.038 194.754 177.735 194.52C177.442 194.285 177.013 194.163 176.446 194.153C175.821 194.134 175.279 194.251 174.82 194.505C174.371 194.759 173.99 195.101 173.678 195.53C173.365 195.96 173.116 196.434 172.931 196.951C172.745 197.469 172.608 197.991 172.521 198.519ZM194.215 191.15L193.688 194.139H184.708L185.235 191.15H194.215ZM188.136 187.239H192.252L189.674 202.254C189.635 202.596 189.635 202.889 189.674 203.133C189.723 203.367 189.835 203.548 190.011 203.675C190.187 203.802 190.46 203.875 190.831 203.895C191.036 203.904 191.241 203.899 191.446 203.88C191.651 203.851 191.861 203.821 192.076 203.792L191.783 206.941C191.393 207.059 190.997 207.142 190.597 207.19C190.206 207.249 189.806 207.278 189.396 207.278C188.458 207.259 187.687 207.054 187.081 206.663C186.485 206.272 186.056 205.735 185.792 205.052C185.538 204.358 185.455 203.558 185.543 202.649L188.136 187.239ZM201.188 207.293C200.104 207.273 199.127 207.068 198.258 206.678C197.389 206.277 196.661 205.73 196.075 205.037C195.499 204.344 195.074 203.538 194.801 202.62C194.527 201.702 194.43 200.716 194.508 199.661L194.566 199.061C194.684 197.957 194.952 196.907 195.372 195.911C195.792 194.915 196.354 194.036 197.057 193.274C197.76 192.503 198.59 191.902 199.547 191.473C200.514 191.033 201.588 190.828 202.77 190.857C203.873 190.877 204.815 191.102 205.597 191.531C206.378 191.961 207.008 192.537 207.486 193.26C207.965 193.982 208.292 194.808 208.468 195.735C208.644 196.653 208.678 197.615 208.57 198.621L208.336 200.379H196.09L196.544 197.566L204.63 197.581L204.703 197.215C204.781 196.678 204.757 196.18 204.63 195.721C204.503 195.252 204.264 194.876 203.912 194.593C203.561 194.31 203.092 194.158 202.506 194.139C201.832 194.119 201.266 194.261 200.807 194.563C200.348 194.866 199.972 195.267 199.679 195.765C199.386 196.263 199.161 196.805 199.005 197.391C198.849 197.967 198.736 198.523 198.668 199.061L198.609 199.646C198.561 200.164 198.575 200.682 198.653 201.199C198.731 201.707 198.883 202.166 199.107 202.576C199.342 202.986 199.659 203.318 200.06 203.572C200.47 203.826 200.982 203.963 201.598 203.982C202.379 204.002 203.097 203.851 203.751 203.528C204.415 203.196 205.011 202.757 205.538 202.21L207.384 204.437C206.944 205.101 206.383 205.647 205.699 206.077C205.025 206.497 204.298 206.805 203.517 207C202.735 207.205 201.959 207.303 201.188 207.293ZM215.704 194.827L213.595 207H209.479L212.232 191.15H216.1L215.704 194.827ZM220.875 191.019L220.362 194.959C220.128 194.92 219.889 194.886 219.645 194.856C219.41 194.827 219.171 194.808 218.927 194.798C218.36 194.788 217.848 194.861 217.389 195.018C216.93 195.174 216.529 195.403 216.188 195.706C215.855 195.999 215.572 196.36 215.338 196.79C215.113 197.22 214.942 197.703 214.825 198.24L214.02 197.977C214.117 197.225 214.278 196.434 214.503 195.604C214.737 194.764 215.06 193.982 215.47 193.26C215.89 192.527 216.422 191.937 217.066 191.487C217.721 191.028 218.517 190.804 219.454 190.813C219.698 190.813 219.933 190.833 220.157 190.872C220.392 190.911 220.631 190.96 220.875 191.019ZM226.383 194.666L224.259 207H220.128L222.882 191.15H226.734L226.383 194.666ZM225.196 198.519L224.098 198.533C224.215 197.576 224.43 196.634 224.742 195.706C225.064 194.778 225.504 193.943 226.061 193.201C226.627 192.459 227.32 191.873 228.141 191.443C228.961 191.014 229.918 190.813 231.012 190.843C231.822 190.862 232.496 191.028 233.033 191.341C233.57 191.653 233.995 192.068 234.308 192.586C234.62 193.104 234.825 193.694 234.923 194.358C235.03 195.022 235.05 195.711 234.981 196.424L233.224 207H229.107L230.792 196.878C230.851 196.39 230.846 195.94 230.777 195.53C230.709 195.12 230.538 194.793 230.265 194.549C229.991 194.295 229.576 194.158 229.02 194.139C228.414 194.119 227.887 194.241 227.438 194.505C226.988 194.759 226.612 195.101 226.31 195.53C226.017 195.96 225.777 196.438 225.592 196.966C225.406 197.483 225.274 198.001 225.196 198.519ZM234.439 198.035L232.96 198.24C233.067 197.303 233.282 196.395 233.604 195.516C233.927 194.627 234.366 193.826 234.923 193.113C235.479 192.4 236.158 191.839 236.959 191.429C237.76 191.019 238.688 190.823 239.742 190.843C240.611 190.872 241.334 191.053 241.91 191.385C242.486 191.717 242.931 192.166 243.243 192.732C243.565 193.299 243.775 193.938 243.873 194.651C243.971 195.354 243.98 196.097 243.902 196.878L242.203 207H238.072L239.771 196.863C239.83 196.375 239.825 195.931 239.757 195.53C239.688 195.12 239.518 194.793 239.244 194.549C238.98 194.295 238.57 194.163 238.014 194.153C237.457 194.134 236.969 194.236 236.549 194.461C236.139 194.676 235.792 194.974 235.509 195.354C235.226 195.726 234.996 196.146 234.82 196.614C234.645 197.083 234.518 197.557 234.439 198.035ZM252.809 207.293C251.725 207.273 250.748 207.068 249.879 206.678C249.01 206.277 248.282 205.73 247.696 205.037C247.12 204.344 246.695 203.538 246.422 202.62C246.148 201.702 246.051 200.716 246.129 199.661L246.188 199.061C246.305 197.957 246.573 196.907 246.993 195.911C247.413 194.915 247.975 194.036 248.678 193.274C249.381 192.503 250.211 191.902 251.168 191.473C252.135 191.033 253.209 190.828 254.391 190.857C255.494 190.877 256.437 191.102 257.218 191.531C257.999 191.961 258.629 192.537 259.107 193.26C259.586 193.982 259.913 194.808 260.089 195.735C260.265 196.653 260.299 197.615 260.191 198.621L259.957 200.379H247.711L248.165 197.566L256.251 197.581L256.324 197.215C256.402 196.678 256.378 196.18 256.251 195.721C256.124 195.252 255.885 194.876 255.533 194.593C255.182 194.31 254.713 194.158 254.127 194.139C253.453 194.119 252.887 194.261 252.428 194.563C251.969 194.866 251.593 195.267 251.3 195.765C251.007 196.263 250.782 196.805 250.626 197.391C250.47 197.967 250.357 198.523 250.289 199.061L250.23 199.646C250.182 200.164 250.196 200.682 250.274 201.199C250.353 201.707 250.504 202.166 250.729 202.576C250.963 202.986 251.28 203.318 251.681 203.572C252.091 203.826 252.604 203.963 253.219 203.982C254 204.002 254.718 203.851 255.372 203.528C256.036 203.196 256.632 202.757 257.159 202.21L259.005 204.437C258.565 205.101 258.004 205.647 257.32 206.077C256.646 206.497 255.919 206.805 255.138 207C254.356 207.205 253.58 207.303 252.809 207.293ZM270.826 203.309L274.078 184.5H278.224L274.327 207H270.621L270.826 203.309ZM261.803 199.383L261.832 199.061C261.959 198.094 262.184 197.117 262.506 196.131C262.838 195.145 263.287 194.246 263.854 193.436C264.43 192.625 265.138 191.98 265.978 191.502C266.817 191.023 267.813 190.804 268.966 190.843C269.952 190.882 270.768 191.16 271.412 191.678C272.057 192.186 272.555 192.845 272.906 193.655C273.268 194.456 273.512 195.311 273.639 196.219C273.775 197.117 273.829 197.972 273.8 198.782L273.727 199.485C273.57 200.354 273.307 201.253 272.936 202.181C272.574 203.099 272.101 203.953 271.515 204.744C270.938 205.525 270.25 206.155 269.449 206.634C268.658 207.112 267.755 207.337 266.739 207.308C265.675 207.278 264.801 207.02 264.117 206.531C263.443 206.033 262.921 205.394 262.55 204.612C262.179 203.831 261.939 202.981 261.832 202.063C261.725 201.146 261.715 200.252 261.803 199.383ZM265.978 199.046L265.948 199.354C265.909 199.773 265.885 200.247 265.875 200.774C265.875 201.292 265.929 201.795 266.036 202.283C266.153 202.762 266.363 203.162 266.666 203.484C266.979 203.797 267.428 203.968 268.014 203.997C268.756 204.026 269.396 203.855 269.933 203.484C270.47 203.104 270.899 202.615 271.222 202.02C271.554 201.424 271.773 200.799 271.881 200.145L272.159 198.196C272.208 197.747 272.208 197.293 272.159 196.834C272.11 196.375 271.998 195.945 271.822 195.545C271.656 195.145 271.402 194.817 271.061 194.563C270.729 194.31 270.294 194.178 269.757 194.168C269.103 194.139 268.546 194.28 268.087 194.593C267.638 194.896 267.271 195.296 266.988 195.794C266.705 196.282 266.48 196.814 266.314 197.391C266.158 197.967 266.046 198.519 265.978 199.046ZM284.566 191.15L281.827 207H277.696L280.45 191.15H284.566ZM280.904 187.093C280.885 186.429 281.1 185.896 281.549 185.496C282.008 185.096 282.56 184.891 283.204 184.881C283.819 184.871 284.356 185.057 284.815 185.438C285.274 185.809 285.504 186.312 285.504 186.946C285.523 187.61 285.304 188.143 284.845 188.543C284.386 188.943 283.839 189.148 283.204 189.158C282.589 189.168 282.052 188.987 281.593 188.616C281.144 188.245 280.914 187.737 280.904 187.093ZM294.146 203.426L295.26 196.321C295.309 195.892 295.289 195.491 295.201 195.12C295.113 194.749 294.933 194.456 294.659 194.241C294.396 194.017 294.02 193.895 293.531 193.875C293.092 193.865 292.696 193.943 292.345 194.109C292.003 194.266 291.72 194.495 291.495 194.798C291.271 195.091 291.114 195.442 291.026 195.853L286.896 195.882C286.944 195.003 287.188 194.246 287.628 193.611C288.077 192.967 288.644 192.439 289.327 192.029C290.011 191.619 290.753 191.316 291.554 191.121C292.364 190.926 293.155 190.838 293.927 190.857C295.03 190.877 296.012 191.106 296.871 191.546C297.74 191.985 298.404 192.615 298.863 193.436C299.332 194.246 299.508 195.232 299.391 196.395L298.292 203.191C298.204 203.758 298.136 204.354 298.087 204.979C298.038 205.594 298.126 206.18 298.351 206.736L298.321 207L294.278 207.015C294.093 206.438 294 205.848 294 205.242C294.01 204.627 294.059 204.021 294.146 203.426ZM295.729 197.347L295.333 199.734L293.238 199.72C292.818 199.729 292.398 199.788 291.979 199.896C291.568 199.993 291.188 200.149 290.836 200.364C290.484 200.569 290.191 200.838 289.957 201.17C289.732 201.502 289.591 201.907 289.532 202.386C289.483 202.728 289.518 203.035 289.635 203.309C289.752 203.572 289.933 203.782 290.177 203.938C290.431 204.095 290.733 204.178 291.085 204.188C291.583 204.197 292.071 204.104 292.55 203.909C293.028 203.704 293.443 203.416 293.795 203.045C294.146 202.674 294.391 202.244 294.527 201.756L295.406 203.587C295.172 204.134 294.874 204.637 294.513 205.096C294.161 205.555 293.756 205.955 293.297 206.297C292.838 206.629 292.335 206.883 291.788 207.059C291.241 207.244 290.655 207.332 290.03 207.322C289.161 207.303 288.36 207.098 287.628 206.707C286.905 206.307 286.329 205.765 285.899 205.081C285.479 204.388 285.289 203.582 285.328 202.664C285.367 201.629 285.626 200.77 286.104 200.086C286.583 199.393 287.198 198.846 287.95 198.445C288.712 198.045 289.537 197.762 290.426 197.596C291.324 197.42 292.213 197.332 293.092 197.332L295.729 197.347ZM311.08 191.15L310.553 194.139H301.573L302.101 191.15H311.08ZM305.001 187.239H309.117L306.539 202.254C306.5 202.596 306.5 202.889 306.539 203.133C306.588 203.367 306.7 203.548 306.876 203.675C307.052 203.802 307.325 203.875 307.696 203.895C307.901 203.904 308.106 203.899 308.312 203.88C308.517 203.851 308.727 203.821 308.941 203.792L308.648 206.941C308.258 207.059 307.862 207.142 307.462 207.19C307.071 207.249 306.671 207.278 306.261 207.278C305.323 207.259 304.552 207.054 303.946 206.663C303.351 206.272 302.921 205.735 302.657 205.052C302.403 204.358 302.32 203.558 302.408 202.649L305.001 187.239ZM318.053 207.293C316.969 207.273 315.992 207.068 315.123 206.678C314.254 206.277 313.526 205.73 312.94 205.037C312.364 204.344 311.939 203.538 311.666 202.62C311.393 201.702 311.295 200.716 311.373 199.661L311.432 199.061C311.549 197.957 311.817 196.907 312.237 195.911C312.657 194.915 313.219 194.036 313.922 193.274C314.625 192.503 315.455 191.902 316.412 191.473C317.379 191.033 318.453 190.828 319.635 190.857C320.738 190.877 321.681 191.102 322.462 191.531C323.243 191.961 323.873 192.537 324.352 193.26C324.83 193.982 325.157 194.808 325.333 195.735C325.509 196.653 325.543 197.615 325.436 198.621L325.201 200.379H312.955L313.409 197.566L321.495 197.581L321.568 197.215C321.646 196.678 321.622 196.18 321.495 195.721C321.368 195.252 321.129 194.876 320.777 194.593C320.426 194.31 319.957 194.158 319.371 194.139C318.697 194.119 318.131 194.261 317.672 194.563C317.213 194.866 316.837 195.267 316.544 195.765C316.251 196.263 316.026 196.805 315.87 197.391C315.714 197.967 315.602 198.523 315.533 199.061L315.475 199.646C315.426 200.164 315.44 200.682 315.519 201.199C315.597 201.707 315.748 202.166 315.973 202.576C316.207 202.986 316.524 203.318 316.925 203.572C317.335 203.826 317.848 203.963 318.463 203.982C319.244 204.002 319.962 203.851 320.616 203.528C321.28 203.196 321.876 202.757 322.403 202.21L324.249 204.437C323.81 205.101 323.248 205.647 322.564 206.077C321.891 206.497 321.163 206.805 320.382 207C319.601 207.205 318.824 207.303 318.053 207.293Z" fill="#D7D7D7"/>
<path d="M358.812 173.344L358.172 177H346.406L347.031 173.344H358.812ZM351.859 154.25L347.906 177H343.328L347.266 154.25H351.859ZM358.984 163.516L358.359 167.078H348.125L348.75 163.516H358.984ZM362.094 154.25L361.453 157.922H349.703L350.359 154.25H362.094ZM366.781 160.094L368.656 165.203L372.25 160.094H377.141L371.062 168.562L374.484 177H370.016L367.906 171.594L364.141 177H359.219L365.562 168.156L362.281 160.094H366.781ZM383.062 163.594L379.609 183.5H375.203L379.266 160.094H383.328L383.062 163.594ZM392.594 168.266L392.547 168.594C392.422 169.615 392.182 170.646 391.828 171.688C391.484 172.729 391.01 173.682 390.406 174.547C389.802 175.401 389.057 176.089 388.172 176.609C387.286 177.12 386.245 177.359 385.047 177.328C383.995 177.297 383.12 177.021 382.422 176.5C381.724 175.979 381.177 175.312 380.781 174.5C380.385 173.677 380.109 172.792 379.953 171.844C379.797 170.896 379.734 169.99 379.766 169.125L379.875 168.25C380.031 167.302 380.302 166.328 380.688 165.328C381.073 164.318 381.573 163.391 382.188 162.547C382.802 161.693 383.536 161.01 384.391 160.5C385.245 159.979 386.229 159.734 387.344 159.766C388.5 159.797 389.443 160.073 390.172 160.594C390.911 161.115 391.474 161.792 391.859 162.625C392.245 163.458 392.484 164.37 392.578 165.359C392.682 166.339 392.688 167.307 392.594 168.266ZM388.156 168.578L388.203 168.25C388.245 167.792 388.266 167.286 388.266 166.734C388.266 166.172 388.203 165.635 388.078 165.125C387.953 164.615 387.724 164.188 387.391 163.844C387.057 163.5 386.578 163.318 385.953 163.297C385.318 163.266 384.76 163.365 384.281 163.594C383.802 163.823 383.396 164.146 383.062 164.562C382.74 164.969 382.474 165.432 382.266 165.953C382.057 166.474 381.906 167.01 381.812 167.562L381.5 169.75C381.448 170.385 381.49 171.016 381.625 171.641C381.76 172.255 382.026 172.766 382.422 173.172C382.828 173.578 383.411 173.792 384.172 173.812C384.859 173.823 385.443 173.667 385.922 173.344C386.401 173.021 386.792 172.594 387.094 172.062C387.406 171.521 387.646 170.943 387.812 170.328C387.979 169.714 388.094 169.13 388.156 168.578ZM401.75 177.312C400.594 177.292 399.552 177.073 398.625 176.656C397.698 176.229 396.922 175.646 396.297 174.906C395.682 174.167 395.229 173.307 394.938 172.328C394.646 171.349 394.542 170.297 394.625 169.172L394.688 168.531C394.812 167.354 395.099 166.234 395.547 165.172C395.995 164.109 396.594 163.172 397.344 162.359C398.094 161.536 398.979 160.896 400 160.438C401.031 159.969 402.177 159.75 403.438 159.781C404.615 159.802 405.62 160.042 406.453 160.5C407.286 160.958 407.958 161.573 408.469 162.344C408.979 163.115 409.328 163.995 409.516 164.984C409.703 165.964 409.74 166.99 409.625 168.062L409.375 169.938H396.312L396.797 166.938L405.422 166.953L405.5 166.562C405.583 165.99 405.557 165.458 405.422 164.969C405.286 164.469 405.031 164.068 404.656 163.766C404.281 163.464 403.781 163.302 403.156 163.281C402.438 163.26 401.833 163.411 401.344 163.734C400.854 164.057 400.453 164.484 400.141 165.016C399.828 165.547 399.589 166.125 399.422 166.75C399.255 167.365 399.135 167.958 399.062 168.531L399 169.156C398.948 169.708 398.964 170.26 399.047 170.812C399.13 171.354 399.292 171.844 399.531 172.281C399.781 172.719 400.12 173.073 400.547 173.344C400.984 173.615 401.531 173.76 402.188 173.781C403.021 173.802 403.786 173.641 404.484 173.297C405.193 172.943 405.828 172.474 406.391 171.891L408.359 174.266C407.891 174.974 407.292 175.557 406.562 176.016C405.844 176.464 405.068 176.792 404.234 177C403.401 177.219 402.573 177.323 401.75 177.312ZM417.234 164.016L414.984 177H410.594L413.531 160.094H417.656L417.234 164.016ZM422.75 159.953L422.203 164.156C421.953 164.115 421.698 164.078 421.438 164.047C421.188 164.016 420.932 163.995 420.672 163.984C420.068 163.974 419.521 164.052 419.031 164.219C418.542 164.385 418.115 164.63 417.75 164.953C417.396 165.266 417.094 165.651 416.844 166.109C416.604 166.568 416.422 167.083 416.297 167.656L415.438 167.375C415.542 166.573 415.714 165.729 415.953 164.844C416.203 163.948 416.547 163.115 416.984 162.344C417.432 161.562 418 160.932 418.688 160.453C419.385 159.964 420.234 159.724 421.234 159.734C421.495 159.734 421.745 159.755 421.984 159.797C422.234 159.839 422.49 159.891 422.75 159.953ZM433.75 160.094L433.188 163.281H423.609L424.172 160.094H433.75ZM427.266 155.922H431.656L428.906 171.938C428.865 172.302 428.865 172.615 428.906 172.875C428.958 173.125 429.078 173.318 429.266 173.453C429.453 173.589 429.745 173.667 430.141 173.688C430.359 173.698 430.578 173.693 430.797 173.672C431.016 173.641 431.24 173.609 431.469 173.578L431.156 176.938C430.74 177.062 430.318 177.151 429.891 177.203C429.474 177.266 429.047 177.297 428.609 177.297C427.609 177.276 426.786 177.057 426.141 176.641C425.505 176.224 425.047 175.651 424.766 174.922C424.495 174.182 424.406 173.328 424.5 172.359L427.266 155.922Z" fill="#D7D7D7"/>
<path d="M192.017 15.9219L197.436 35.9629L209.817 15.9219H219.898L200.645 44.3789L197.98 60H188.959L191.835 43.501L182.662 15.9521L192.017 15.9219ZM254.077 36.7803L253.835 38.8994C253.431 41.7249 252.674 44.4495 251.564 47.0732C250.454 49.6969 249.001 52.0381 247.205 54.0967C245.409 56.1351 243.27 57.7497 240.787 58.9404C238.325 60.111 235.53 60.666 232.401 60.6055C229.414 60.5449 226.882 59.8991 224.803 58.668C222.744 57.4167 221.109 55.7617 219.898 53.7031C218.708 51.6445 217.91 49.3538 217.507 46.8311C217.103 44.2881 217.063 41.6846 217.386 39.0205L217.628 36.9316C218.032 34.1061 218.788 31.3916 219.898 28.7881C221.029 26.1846 222.492 23.8636 224.288 21.8252C226.104 19.7666 228.244 18.152 230.706 16.9814C233.188 15.8109 235.974 15.2559 239.062 15.3164C242.049 15.3568 244.571 16.0026 246.63 17.2539C248.709 18.485 250.343 20.1299 251.534 22.1885C252.745 24.2269 253.552 26.5176 253.956 29.0605C254.36 31.5833 254.4 34.1566 254.077 36.7803ZM244.844 39.0205L245.146 36.8408C245.308 35.4684 245.389 33.985 245.389 32.3906C245.409 30.776 245.227 29.2321 244.844 27.7588C244.46 26.2653 243.774 25.0443 242.785 24.0957C241.816 23.127 240.414 22.6022 238.577 22.5215C236.599 22.4609 234.904 22.8545 233.491 23.7021C232.099 24.5498 230.928 25.7002 229.979 27.1533C229.051 28.5863 228.314 30.1605 227.77 31.876C227.245 33.5713 226.861 35.2363 226.619 36.8711L226.347 39.0508C226.165 40.403 226.064 41.8965 226.044 43.5312C226.044 45.1458 226.236 46.6999 226.619 48.1934C227.003 49.6667 227.689 50.8877 228.678 51.8564C229.667 52.8252 231.079 53.3499 232.916 53.4307C234.874 53.4912 236.549 53.0876 237.941 52.2197C239.354 51.3519 240.535 50.2015 241.483 48.7686C242.432 47.3154 243.179 45.7412 243.724 44.0459C244.269 42.3304 244.642 40.6553 244.844 39.0205ZM287.711 15.9219H296.551L291.586 45.0146C291.122 48.2842 290.042 51.0996 288.347 53.4609C286.672 55.8021 284.512 57.5983 281.868 58.8496C279.244 60.0807 276.288 60.6761 272.998 60.6357C269.93 60.5752 267.256 59.9092 264.976 58.6377C262.715 57.346 261.02 55.5498 259.89 53.249C258.759 50.9281 258.386 48.1934 258.77 45.0449L263.734 15.9219H272.574L267.64 45.0752C267.458 46.5889 267.508 47.9814 267.791 49.2529C268.094 50.5042 268.699 51.5234 269.607 52.3105C270.536 53.0775 271.848 53.4811 273.543 53.5215C275.339 53.582 276.873 53.2591 278.145 52.5527C279.416 51.8464 280.435 50.8473 281.202 49.5557C281.969 48.2438 282.484 46.7402 282.746 45.0449L287.711 15.9219Z" fill="#F4FCFF"/>
<line x1="240" y1="72" x2="240" y2="118" stroke="#CECECE" stroke-width="4"/>
<line x1="81.9928" y1="117.064" x2="381.991" y2="115.989" stroke="#CECECE" stroke-width="4"/>
<line x1="84" y1="118" x2="84" y2="218" stroke="#CECECE" stroke-width="4"/>
<line x1="240" y1="114" x2="240" y2="184" stroke="#CECECE" stroke-width="4"/>
<line x1="383" y1="114" x2="383" y2="154" stroke="#CECECE" stroke-width="4"/>
<path d="M313.5 37.3534L315.352 43.281L315.571 43.9828H316.306H322.406L317.438 47.7366L316.877 48.1609L317.086 48.8327L318.963 54.8403L314.103 51.1677L313.5 50.7122L312.897 51.1677L308.037 54.8403L309.914 48.8327L310.123 48.1609L309.562 47.7366L304.594 43.9828H310.694H311.429L311.648 43.281L313.5 37.3534Z" fill="#F4F4F4" stroke="black" stroke-width="2"/>
<path d="M312.5 2.93492L314.815 9.3235L315.054 9.98278H315.755H322.923L317.222 13.6965L316.557 14.1294L316.827 14.8752L319.064 21.048L313.046 17.1276L312.5 16.7721L311.954 17.1276L305.936 21.048L308.173 14.8752L308.443 14.1294L307.778 13.6965L302.077 9.98278H309.245H309.946L310.185 9.3235L312.5 2.93492Z" fill="#F4F4F4"/>
<path d="M312.5 2.93492L314.815 9.3235L315.054 9.98278H315.755H322.923L317.222 13.6965L316.557 14.1294L316.827 14.8752L319.064 21.048L313.046 17.1276L312.5 16.7721L311.954 17.1276L305.936 21.048L308.173 14.8752L308.443 14.1294L307.778 13.6965L302.077 9.98278H309.245H309.946L310.185 9.3235L312.5 2.93492Z" fill="#F4F4F4"/>
<path d="M312.5 2.93492L314.815 9.3235L315.054 9.98278H315.755H322.923L317.222 13.6965L316.557 14.1294L316.827 14.8752L319.064 21.048L313.046 17.1276L312.5 16.7721L311.954 17.1276L305.936 21.048L308.173 14.8752L308.443 14.1294L307.778 13.6965L302.077 9.98278H309.245H309.946L310.185 9.3235L312.5 2.93492Z" stroke="black" stroke-width="2"/>
<path d="M338.119 14.5915L343.664 24.1957L344.027 24.8249L344.738 24.6738L355.585 22.3681L348.165 30.6095L347.678 31.1494L348.042 31.7786L353.587 41.3828L343.456 36.8721L342.792 36.5766L342.306 37.1165L334.885 45.3579L336.044 34.3288L336.12 33.6062L335.457 33.3107L325.325 28.8L336.173 26.4943L336.884 26.3433L336.96 25.6207L338.119 14.5915Z" fill="#F4F4F4"/>
<path d="M338.119 14.5915L343.664 24.1957L344.027 24.8249L344.738 24.6738L355.585 22.3681L348.165 30.6095L347.678 31.1494L348.042 31.7786L353.587 41.3828L343.456 36.8721L342.792 36.5766L342.306 37.1165L334.885 45.3579L336.044 34.3288L336.12 33.6062L335.457 33.3107L325.325 28.8L336.173 26.4943L336.884 26.3433L336.96 25.6207L338.119 14.5915Z" fill="#F4F4F4"/>
<path d="M338.119 14.5915L343.664 24.1957L344.027 24.8249L344.738 24.6738L355.585 22.3681L348.165 30.6095L347.678 31.1494L348.042 31.7786L353.587 41.3828L343.456 36.8721L342.792 36.5766L342.306 37.1165L334.885 45.3579L336.044 34.3288L336.12 33.6062L335.457 33.3107L325.325 28.8L336.173 26.4943L336.884 26.3433L336.96 25.6207L338.119 14.5915Z" stroke="black" stroke-width="2"/>
</svg>